<svg xmlns="http://www.w3.org/2000/svg" fill="none" viewBox="0 0 24 24" id="Add-To-Drive--Streamline-Rounded-Material" height="24" width="24">
  <desc>
    Add To Drive Streamline Icon: https://streamlinehq.com
  </desc>
  <path fill="#000000" d="M5.25 21.5c-0.2 0 -0.412525 -0.0625 -0.637525 -0.1875 -0.225 -0.125 -0.3875 -0.27915 -0.4875 -0.4625l-2.75 -4.8c-0.1 -0.18335 -0.15 -0.4 -0.15 -0.65s0.05 -0.46665 0.15 -0.65L8.125 3.15c0.1 -0.183335 0.2625 -0.3375 0.4875 -0.4625 0.225 -0.125 0.4375 -0.1875 0.6375 -0.1875h5.5c0.2 0 0.4125 0.0625 0.6375 0.1875 0.225 0.125 0.3875 0.279165 0.4875 0.4625l3.925 6.75c0.15 0.26665 0.1458 0.52915 -0.0125 0.7875 -0.15835 0.25835 -0.39585 0.37085 -0.7125 0.3375 -0.1167 -0.01665 -0.225 -0.05835 -0.325 -0.125s-0.18335 -0.15 -0.25 -0.25L14.625 4h-5.25L2.724975 15.4 5.35 20h8.1c0.11665 0 0.2208 0.025 0.3125 0.075 0.09165 0.05 0.17915 0.11665 0.2625 0.2 0.2 0.25 0.2333 0.51665 0.1 0.8 -0.13335 0.28335 -0.35835 0.425 -0.675 0.425H5.25Zm2.425 -4.5c-0.13335 0 -0.25835 -0.03335 -0.375 -0.1 -0.1167 -0.06665 -0.20835 -0.15835 -0.275 -0.275l-0.3 -0.525c-0.0667 -0.11665 -0.09585 -0.24165 -0.0875 -0.375 0.0083 -0.13335 0.0458 -0.25835 0.1125 -0.375l4.125 -7.225c0.06665 -0.11665 0.1583 -0.20835 0.275 -0.275 0.11665 -0.06665 0.24165 -0.1 0.375 -0.1h0.95c0.1333 0 0.2583 0.03335 0.375 0.1 0.11665 0.06665 0.2083 0.15835 0.275 0.275l2.025 3.525c0.0833 0.15 0.1125 0.30415 0.0875 0.4625 -0.025 0.15835 -0.1042 0.30415 -0.2375 0.4375 -0.18335 0.18335 -0.3875 0.25835 -0.6125 0.225 -0.225 -0.03335 -0.4042 -0.15835 -0.5375 -0.375L12 9.2 8.375 15.5h3.975c0.2333 0 0.4208 0.08335 0.5625 0.25 0.14165 0.16665 0.1958 0.36665 0.1625 0.6 -0.03335 0.18335 -0.1167 0.3375 -0.25 0.4625 -0.13335 0.125 -0.2917 0.1875 -0.475 0.1875h-4.675Zm10.575 0.75H16c-0.2167 0 -0.39585 -0.07085 -0.5375 -0.2125 -0.1417 -0.14165 -0.2125 -0.32085 -0.2125 -0.5375 0 -0.21665 0.0708 -0.39585 0.2125 -0.5375 0.14165 -0.14165 0.3208 -0.2125 0.5375 -0.2125h2.25V14c0 -0.21665 0.0708 -0.39585 0.2125 -0.5375 0.14165 -0.14165 0.3208 -0.2125 0.5375 -0.2125 0.21665 0 0.3958 0.07085 0.5375 0.2125 0.14165 0.14165 0.2125 0.32085 0.2125 0.5375v2.25H22c0.21665 0 0.3958 0.07085 0.5375 0.2125 0.14165 0.14165 0.2125 0.32085 0.2125 0.5375 0 0.21665 -0.07085 0.39585 -0.2125 0.5375 -0.1417 0.14165 -0.32085 0.2125 -0.5375 0.2125h-2.25V20c0 0.21665 -0.07085 0.39585 -0.2125 0.5375 -0.1417 0.14165 -0.32085 0.2125 -0.5375 0.2125 -0.2167 0 -0.39585 -0.07085 -0.5375 -0.2125 -0.1417 -0.14165 -0.2125 -0.32085 -0.2125 -0.5375v-2.25Z" stroke-width="0.5"></path>
</svg>