<?xml version="1.0" encoding="UTF-8"?>
<svg version="1.1" xmlns="http://www.w3.org/2000/svg" width="64" height="64">
<path d="M0 0 C2.3151437 3.47271555 2.25453763 4.92739797 2 9 C1.67 9.99 1.34 10.98 1 12 C1.12375 12.886875 1.2475 13.77375 1.375 14.6875 C0.7153816 20.51412922 -4.00011711 24.00011711 -8 28 C-9.32 28 -10.64 28 -12 28 C-11.84595887 22.91664275 -8.97931568 20.64245282 -5.49609375 17.35546875 C-5.00238281 16.90816406 -4.50867187 16.46085937 -4 16 C-7.49795017 18.64605087 -10.50261504 21.49825498 -13.50390625 24.67114258 C-26.85242505 38.70115955 -26.85242505 38.70115955 -35.8125 39.13671875 C-36.534375 39.09160156 -37.25625 39.04648437 -38 39 C-36.94435933 25.27667132 -24.61905872 15.56366209 -15.5625 6.4375 C-14.94705322 5.81721924 -14.33160645 5.19693848 -13.69750977 4.55786133 C-13.11799561 3.98060303 -12.53848145 3.40334473 -11.94140625 2.80859375 C-11.42263916 2.29095459 -10.90387207 1.77331543 -10.36938477 1.23999023 C-7.01320153 -1.7990639 -4.22298618 -0.90492561 0 0 Z M-20.61938477 17.35742188 C-25.01914593 21.83676893 -28.65768885 26.68054704 -32 32 C-25.54942166 32 -20.41305096 25.53551545 -16.0625 21.2578125 C-14.3698143 19.55200521 -12.68237819 17.84097407 -11 16.125 C-9.69482422 14.80628906 -9.69482422 14.80628906 -8.36328125 13.4609375 C-6.23751809 11.3118143 -4.11660111 9.15814069 -2 7 C-2.66 5.68 -3.32 4.36 -4 3 C-8.9051415 3 -17.04775468 13.81323571 -20.61938477 17.35742188 Z " fill="#000000" transform="translate(62,1)"/>
<path d="M0 0 C0.77261673 0.00424484 1.54523346 0.00848969 2.34126282 0.01286316 C4.80729117 0.02964692 7.27250021 0.06729728 9.73828125 0.10546875 C11.41079548 0.12051604 13.08332253 0.13420437 14.75585938 0.14648438 C18.85448203 0.17954929 22.95249276 0.23132847 27.05078125 0.29296875 C27.05078125 1.28296875 27.05078125 2.27296875 27.05078125 3.29296875 C15.83078125 3.62296875 4.61078125 3.95296875 -6.94921875 4.29296875 C-6.94921875 20.79296875 -6.94921875 37.29296875 -6.94921875 54.29296875 C9.55078125 54.29296875 26.05078125 54.29296875 43.05078125 54.29296875 C43.38078125 46.37296875 43.71078125 38.45296875 44.05078125 30.29296875 C45.04078125 30.29296875 46.03078125 30.29296875 47.05078125 30.29296875 C47.13772167 34.39700238 47.19115274 38.50080004 47.23828125 42.60546875 C47.26341797 43.77271484 47.28855469 44.93996094 47.31445312 46.14257812 C47.32412109 47.26083984 47.33378906 48.37910156 47.34375 49.53125 C47.35946045 50.56290283 47.3751709 51.59455566 47.39135742 52.6574707 C47.05078125 55.29296875 47.05078125 55.29296875 45.84614563 56.9334259 C43.45515526 58.74400758 41.96775974 58.67331073 38.984375 58.68115234 C37.95320557 58.69060883 36.92203613 58.70006531 35.85961914 58.70980835 C34.74707764 58.70373566 33.63453613 58.69766296 32.48828125 58.69140625 C31.34544678 58.69427643 30.2026123 58.69714661 29.02514648 58.70010376 C26.6075796 58.70214632 24.18999626 58.69660313 21.77246094 58.68408203 C18.0653804 58.66803196 14.35939025 58.68392516 10.65234375 58.703125 C8.30598717 58.7011426 5.95963127 58.697299 3.61328125 58.69140625 C1.94446899 58.70051529 1.94446899 58.70051529 0.24194336 58.70980835 C-0.78922607 58.70035187 -1.82039551 58.69089539 -2.8828125 58.68115234 C-4.24490845 58.67757217 -4.24490845 58.67757217 -5.63452148 58.67391968 C-7.94921875 58.29296875 -7.94921875 58.29296875 -9.74160767 57.08535767 C-11.35488157 54.69086634 -11.32983576 53.10531285 -11.33740234 50.2265625 C-11.34685883 49.19539307 -11.35631531 48.16422363 -11.36605835 47.10180664 C-11.35998566 45.98926514 -11.35391296 44.87672363 -11.34765625 43.73046875 C-11.35052643 42.58763428 -11.35339661 41.4447998 -11.35635376 40.26733398 C-11.35839632 37.8497671 -11.35285313 35.43218376 -11.34033203 33.01464844 C-11.32428196 29.3075679 -11.34017516 25.60157775 -11.359375 21.89453125 C-11.3573926 19.54817467 -11.353549 17.20181877 -11.34765625 14.85546875 C-11.35372894 13.74292725 -11.35980164 12.63038574 -11.36605835 11.48413086 C-11.35660187 10.45296143 -11.34714539 9.42179199 -11.33740234 8.359375 C-11.33501556 7.45131104 -11.33262878 6.54324707 -11.33016968 5.60766602 C-10.94921875 3.29296875 -10.94921875 3.29296875 -9.64704895 1.49760437 C-6.75725193 -0.55274933 -3.40952812 -0.07038096 0 0 Z " fill="#000000" transform="translate(13.94921875,2.70703125)"/>
</svg>
