<?xml version="1.0" encoding="UTF-8"?>
<svg version="1.1" xmlns="http://www.w3.org/2000/svg" width="1024" height="1536">
<path d="M0 0 C337.92 0 675.84 0 1024 0 C1024 506.88 1024 1013.76 1024 1536 C686.08 1536 348.16 1536 0 1536 C0 1029.12 0 522.24 0 0 Z " fill="#FBFBFB" transform="translate(0,0)"/>
<path d="M0 0 C47.10087477 -0.13619548 94.20168134 -0.18678023 141.30273406 -0.20867456 C150.46342074 -0.21296461 159.62410683 -0.21816956 168.78479303 -0.22335979 C200.33369002 -0.24112067 231.88258731 -0.25613075 263.43148851 -0.26367998 C265.3812064 -0.26415466 267.33092428 -0.26463055 269.28064216 -0.26510764 C270.7302077 -0.26546221 270.7302077 -0.26546221 272.20905739 -0.26582393 C277.10132237 -0.26702457 281.99358736 -0.26824023 286.88585234 -0.26946592 C287.85649676 -0.26970607 288.82714119 -0.26994622 289.82719909 -0.27019365 C321.59008091 -0.27815945 353.35292632 -0.30180428 385.11579214 -0.33402187 C418.97287367 -0.36830008 452.82993371 -0.38802508 486.68703288 -0.39132422 C490.3950977 -0.39174163 494.10316251 -0.39222115 497.81122732 -0.3927474 C498.7237659 -0.39287059 499.63630447 -0.39299379 500.57649573 -0.39312071 C515.21075999 -0.39544528 529.84498071 -0.41105219 544.47922946 -0.43158925 C559.11486092 -0.45180757 573.75044008 -0.45734168 588.38608292 -0.44781861 C597.0649648 -0.44260245 605.74367244 -0.44848966 614.42252926 -0.47035329 C620.21740995 -0.48384981 626.01217052 -0.48279498 631.80705237 -0.46995133 C635.10580267 -0.46305111 638.40415282 -0.46461403 641.70288638 -0.47951142 C645.25953242 -0.4945827 648.81530153 -0.48499025 652.37192583 -0.46928453 C653.38845146 -0.47950674 654.4049771 -0.48972895 655.45230654 -0.50026092 C665.93735884 -0.3991425 675.9514585 3.03814209 683.90074492 10.02570009 C692.07708688 19.23825173 695.52465411 29.69095782 695.40410948 41.87230253 C695.40992324 42.91130761 695.415737 43.95031269 695.42172694 45.02080277 C695.43628121 48.48934437 695.42246243 51.95717325 695.40867949 55.42570925 C695.41329018 57.94278243 695.41964423 60.45985293 695.42758846 62.9769178 C695.44079868 68.44283734 695.44161893 73.90854057 695.43139982 79.3744626 C695.41624488 87.50259479 695.42401779 95.63059399 695.43623305 103.75872533 C695.45728051 118.27735607 695.45547657 132.79591634 695.4439174 147.31455377 C695.43385104 160.02074728 695.4312303 172.72691498 695.43600798 185.43311167 C695.43646629 186.69787252 695.43646629 186.69787252 695.43693386 187.9881841 C695.43817923 191.41100263 695.43945284 194.83382114 695.44077291 198.25663964 C695.45300645 230.35960409 695.44191918 262.4625237 695.42038532 294.56548123 C695.4014049 323.07853069 695.40310025 351.59150868 695.42222929 380.10455751 C695.44365482 412.14768589 695.45213709 444.19077464 695.43978024 476.23390919 C695.43849739 479.6507637 695.43724603 483.06761822 695.43600798 486.48447275 C695.43569167 487.32577396 695.43537536 488.16707518 695.43504946 489.03387037 C695.43050229 501.73047258 695.43581564 514.42704612 695.44592619 527.12364435 C695.45736735 541.56309388 695.45449519 556.00246198 695.43280321 570.44190138 C695.42106736 578.52012673 695.42027777 586.59817571 695.43538791 594.67639644 C695.44542883 600.71075005 695.43451988 606.74487555 695.41548961 612.7792154 C695.41102343 615.21851589 695.41329012 617.65784001 695.42299277 620.09712528 C695.53320913 650.10951723 695.53320913 650.10951723 683.90074492 662.02570009 C676.34282171 668.80997762 668.41618478 672.1468526 658.20767057 672.15450126 C657.06255274 672.15777345 655.91743491 672.16104565 654.73761654 672.164417 C653.48164999 672.16293337 652.22568345 672.16144975 650.93165731 672.15992117 C649.57675362 672.16187459 648.22185049 672.16426362 646.86694825 672.16704914 C643.12823904 672.17345349 639.38955131 672.17361042 635.65083767 672.17277173 C631.58916092 672.17294114 627.5274919 672.1788463 623.465819 672.18401259 C615.4030129 672.19334436 607.34021229 672.19726161 599.27740147 672.19953156 C589.62262743 672.2024921 579.9678607 672.21118859 570.31309049 672.21994584 C546.97649612 672.24079652 523.63990048 672.25126071 500.30329896 672.26007545 C489.26626518 672.26428075 478.22923195 672.26950288 467.19219864 672.27475997 C429.42044678 672.29265001 391.64869476 672.30764692 353.8769393 672.31508017 C351.50535047 672.31555492 349.13376165 672.31603081 346.76217283 672.31650783 C345.58606548 672.3167442 344.40995813 672.31698058 343.19821117 672.31722412 C337.23935523 672.31842533 331.28049929 672.31964078 325.32164335 672.32086611 C323.54780714 672.32122633 323.54780714 672.32122633 321.73813585 672.32159384 C283.38648899 672.32948887 245.03487304 672.35292499 206.68323967 672.38542205 C166.14732538 672.41970733 125.61142917 672.43943006 85.07550013 672.44272441 C80.62701121 672.44314196 76.1785223 672.44362152 71.7300334 672.44414759 C70.63466922 672.44427078 69.53930505 672.44439397 68.41074802 672.44452089 C50.77145503 672.44685445 33.13219791 672.46252297 15.49291771 672.48298943 C-2.23171622 672.50322893 -19.95630701 672.5087336 -37.68095036 672.4992188 C-48.214422 672.49399668 -58.74775018 672.49991492 -69.28120122 672.52175347 C-76.31637665 672.53523846 -83.35145308 672.53420494 -90.38662944 672.52135151 C-94.3957719 672.5144396 -98.40463964 672.51383729 -102.41375782 672.5309116 C-106.06446781 672.54633281 -109.71468264 672.5431765 -113.36537811 672.52550132 C-115.28977071 672.52088927 -117.21418027 672.53582197 -119.13851321 672.5516611 C-130.84857549 672.45834108 -139.42602121 669.652913 -147.87269258 661.44757509 C-156.6211058 651.9317572 -159.56970584 642.13519796 -159.48236513 629.33617353 C-159.48732465 628.30199865 -159.49228416 627.26782376 -159.49739397 626.20231023 C-159.5103254 622.74428147 -159.50197292 619.28664039 -159.49366426 615.82860231 C-159.4985543 613.32135536 -159.50474463 610.81411067 -159.51212215 608.3068698 C-159.52510549 602.85932871 -159.52877523 597.41190455 -159.52416277 591.96435213 C-159.51732155 583.86343799 -159.52759989 575.76260773 -159.54112033 567.66170524 C-159.56601791 552.35073739 -159.57054995 537.03980443 -159.56865436 521.72881957 C-159.56728081 509.90469766 -159.57110124 498.08058784 -159.57857943 486.2564683 C-159.57962977 484.55716392 -159.58067738 482.85785954 -159.58172229 481.15855515 C-159.58224163 480.31501542 -159.58276098 479.47147568 -159.58329606 478.60237414 C-159.5838162 477.75728328 -159.58433634 476.91219243 -159.58487225 476.04149276 C-159.58539624 475.19497761 -159.58592023 474.34846247 -159.5864601 473.47629535 C-159.60104164 449.67015558 -159.60932666 425.86402025 -159.6047101 402.05787611 C-159.60453815 401.16058507 -159.60436619 400.26329403 -159.60418903 399.33881236 C-159.60330015 394.79108217 -159.60235534 390.24335199 -159.60139102 385.69562181 C-159.60119998 384.79244346 -159.60100895 383.8892651 -159.60081213 382.95871771 C-159.60042504 381.13227211 -159.60003471 379.3058265 -159.59964115 377.4793809 C-159.59367125 349.06046119 -159.60910968 320.64162292 -159.64124727 292.22272158 C-159.67733186 260.28653237 -159.6966559 228.35039479 -159.69170856 196.41418391 C-159.69123859 193.00824901 -159.69082834 189.6023141 -159.69045687 186.19637918 C-159.69035448 185.3577652 -159.6902521 184.51915121 -159.69014661 183.65512467 C-159.6889523 171.00127926 -159.70091214 158.34748968 -159.71960115 145.69365931 C-159.74084864 131.30068659 -159.74467728 116.90783092 -159.72530156 102.51485296 C-159.71498335 94.46346093 -159.71842487 86.41235449 -159.74183242 78.36098834 C-159.75777033 72.34478957 -159.74749126 66.32893306 -159.7271114 60.31273536 C-159.72291969 57.88213203 -159.72714466 55.45149631 -159.74070734 53.02092721 C-159.81794327 38.16603051 -159.76992757 24.79182109 -149.81800508 12.73273134 C-142.46828018 5.4331182 -132.38123567 0.64458993 -122.00221364 0.46720598 C-120.74601609 0.47531259 -120.74601609 0.47531259 -119.46444082 0.48358297 C-118.08296205 0.46864642 -118.08296205 0.46864642 -116.67357462 0.45340811 C-113.59778168 0.42504702 -110.52265749 0.42484472 -107.44674349 0.42470217 C-105.21145167 0.41024046 -102.97617017 0.39410276 -100.74090135 0.37643945 C-94.5927298 0.33315781 -88.44470531 0.31510538 -82.29640566 0.30156718 C-76.30926644 0.28477431 -70.32223799 0.24972382 -64.33517579 0.21605816 C-48.21801472 0.12685368 -32.10081322 0.08076373 -15.98346307 0.04252055 C-10.65563744 0.0298082 -5.32781841 0.01543493 0 0 Z " fill="#FAFAFA" transform="translate(244.09925508499146,431.9742999076843)"/>
<path d="M0 0 C47.10087477 -0.13619548 94.20168134 -0.18678023 141.30273406 -0.20867456 C150.46342074 -0.21296461 159.62410683 -0.21816956 168.78479303 -0.22335979 C200.33369002 -0.24112067 231.88258731 -0.25613075 263.43148851 -0.26367998 C265.3812064 -0.26415466 267.33092428 -0.26463055 269.28064216 -0.26510764 C270.7302077 -0.26546221 270.7302077 -0.26546221 272.20905739 -0.26582393 C277.10132237 -0.26702457 281.99358736 -0.26824023 286.88585234 -0.26946592 C287.85649676 -0.26970607 288.82714119 -0.26994622 289.82719909 -0.27019365 C321.59008091 -0.27815945 353.35292632 -0.30180428 385.11579214 -0.33402187 C418.97287367 -0.36830008 452.82993371 -0.38802508 486.68703288 -0.39132422 C490.3950977 -0.39174163 494.10316251 -0.39222115 497.81122732 -0.3927474 C498.7237659 -0.39287059 499.63630447 -0.39299379 500.57649573 -0.39312071 C515.21075999 -0.39544528 529.84498071 -0.41105219 544.47922946 -0.43158925 C559.11486092 -0.45180757 573.75044008 -0.45734168 588.38608292 -0.44781861 C597.0649648 -0.44260245 605.74367244 -0.44848966 614.42252926 -0.47035329 C620.21740995 -0.48384981 626.01217052 -0.48279498 631.80705237 -0.46995133 C635.10580267 -0.46305111 638.40415282 -0.46461403 641.70288638 -0.47951142 C645.25953242 -0.4945827 648.81530153 -0.48499025 652.37192583 -0.46928453 C653.38845146 -0.47950674 654.4049771 -0.48972895 655.45230654 -0.50026092 C665.93735884 -0.3991425 675.9514585 3.03814209 683.90074492 10.02570009 C692.07708688 19.23825173 695.52465411 29.69095782 695.40410948 41.87230253 C695.40992324 42.91130761 695.415737 43.95031269 695.42172694 45.02080277 C695.43628121 48.48934437 695.42246243 51.95717325 695.40867949 55.42570925 C695.41329018 57.94278243 695.41964423 60.45985293 695.42758846 62.9769178 C695.44079868 68.44283734 695.44161893 73.90854057 695.43139982 79.3744626 C695.41624488 87.50259479 695.42401779 95.63059399 695.43623305 103.75872533 C695.45728051 118.27735607 695.45547657 132.79591634 695.4439174 147.31455377 C695.43385104 160.02074728 695.4312303 172.72691498 695.43600798 185.43311167 C695.43646629 186.69787252 695.43646629 186.69787252 695.43693386 187.9881841 C695.43817923 191.41100263 695.43945284 194.83382114 695.44077291 198.25663964 C695.45300645 230.35960409 695.44191918 262.4625237 695.42038532 294.56548123 C695.4014049 323.07853069 695.40310025 351.59150868 695.42222929 380.10455751 C695.44365482 412.14768589 695.45213709 444.19077464 695.43978024 476.23390919 C695.43849739 479.6507637 695.43724603 483.06761822 695.43600798 486.48447275 C695.43569167 487.32577396 695.43537536 488.16707518 695.43504946 489.03387037 C695.43050229 501.73047258 695.43581564 514.42704612 695.44592619 527.12364435 C695.45736735 541.56309388 695.45449519 556.00246198 695.43280321 570.44190138 C695.42106736 578.52012673 695.42027777 586.59817571 695.43538791 594.67639644 C695.44542883 600.71075005 695.43451988 606.74487555 695.41548961 612.7792154 C695.41102343 615.21851589 695.41329012 617.65784001 695.42299277 620.09712528 C695.53320913 650.10951723 695.53320913 650.10951723 683.90074492 662.02570009 C676.34282171 668.80997762 668.41618478 672.1468526 658.20767057 672.15450126 C657.06255274 672.15777345 655.91743491 672.16104565 654.73761654 672.164417 C653.48164999 672.16293337 652.22568345 672.16144975 650.93165731 672.15992117 C649.57675362 672.16187459 648.22185049 672.16426362 646.86694825 672.16704914 C643.12823904 672.17345349 639.38955131 672.17361042 635.65083767 672.17277173 C631.58916092 672.17294114 627.5274919 672.1788463 623.465819 672.18401259 C615.4030129 672.19334436 607.34021229 672.19726161 599.27740147 672.19953156 C589.62262743 672.2024921 579.9678607 672.21118859 570.31309049 672.21994584 C546.97649612 672.24079652 523.63990048 672.25126071 500.30329896 672.26007545 C489.26626518 672.26428075 478.22923195 672.26950288 467.19219864 672.27475997 C429.42044678 672.29265001 391.64869476 672.30764692 353.8769393 672.31508017 C351.50535047 672.31555492 349.13376165 672.31603081 346.76217283 672.31650783 C345.58606548 672.3167442 344.40995813 672.31698058 343.19821117 672.31722412 C337.23935523 672.31842533 331.28049929 672.31964078 325.32164335 672.32086611 C323.54780714 672.32122633 323.54780714 672.32122633 321.73813585 672.32159384 C283.38648899 672.32948887 245.03487304 672.35292499 206.68323967 672.38542205 C166.14732538 672.41970733 125.61142917 672.43943006 85.07550013 672.44272441 C80.62701121 672.44314196 76.1785223 672.44362152 71.7300334 672.44414759 C70.63466922 672.44427078 69.53930505 672.44439397 68.41074802 672.44452089 C50.77145503 672.44685445 33.13219791 672.46252297 15.49291771 672.48298943 C-2.23171622 672.50322893 -19.95630701 672.5087336 -37.68095036 672.4992188 C-48.214422 672.49399668 -58.74775018 672.49991492 -69.28120122 672.52175347 C-76.31637665 672.53523846 -83.35145308 672.53420494 -90.38662944 672.52135151 C-94.3957719 672.5144396 -98.40463964 672.51383729 -102.41375782 672.5309116 C-106.06446781 672.54633281 -109.71468264 672.5431765 -113.36537811 672.52550132 C-115.28977071 672.52088927 -117.21418027 672.53582197 -119.13851321 672.5516611 C-130.84857549 672.45834108 -139.42602121 669.652913 -147.87269258 661.44757509 C-156.6211058 651.9317572 -159.56970584 642.13519796 -159.48236513 629.33617353 C-159.48732465 628.30199865 -159.49228416 627.26782376 -159.49739397 626.20231023 C-159.5103254 622.74428147 -159.50197292 619.28664039 -159.49366426 615.82860231 C-159.4985543 613.32135536 -159.50474463 610.81411067 -159.51212215 608.3068698 C-159.52510549 602.85932871 -159.52877523 597.41190455 -159.52416277 591.96435213 C-159.51732155 583.86343799 -159.52759989 575.76260773 -159.54112033 567.66170524 C-159.56601791 552.35073739 -159.57054995 537.03980443 -159.56865436 521.72881957 C-159.56728081 509.90469766 -159.57110124 498.08058784 -159.57857943 486.2564683 C-159.57962977 484.55716392 -159.58067738 482.85785954 -159.58172229 481.15855515 C-159.58224163 480.31501542 -159.58276098 479.47147568 -159.58329606 478.60237414 C-159.5838162 477.75728328 -159.58433634 476.91219243 -159.58487225 476.04149276 C-159.58539624 475.19497761 -159.58592023 474.34846247 -159.5864601 473.47629535 C-159.60104164 449.67015558 -159.60932666 425.86402025 -159.6047101 402.05787611 C-159.60453815 401.16058507 -159.60436619 400.26329403 -159.60418903 399.33881236 C-159.60330015 394.79108217 -159.60235534 390.24335199 -159.60139102 385.69562181 C-159.60119998 384.79244346 -159.60100895 383.8892651 -159.60081213 382.95871771 C-159.60042504 381.13227211 -159.60003471 379.3058265 -159.59964115 377.4793809 C-159.59367125 349.06046119 -159.60910968 320.64162292 -159.64124727 292.22272158 C-159.67733186 260.28653237 -159.6966559 228.35039479 -159.69170856 196.41418391 C-159.69123859 193.00824901 -159.69082834 189.6023141 -159.69045687 186.19637918 C-159.69035448 185.3577652 -159.6902521 184.51915121 -159.69014661 183.65512467 C-159.6889523 171.00127926 -159.70091214 158.34748968 -159.71960115 145.69365931 C-159.74084864 131.30068659 -159.74467728 116.90783092 -159.72530156 102.51485296 C-159.71498335 94.46346093 -159.71842487 86.41235449 -159.74183242 78.36098834 C-159.75777033 72.34478957 -159.74749126 66.32893306 -159.7271114 60.31273536 C-159.72291969 57.88213203 -159.72714466 55.45149631 -159.74070734 53.02092721 C-159.81794327 38.16603051 -159.76992757 24.79182109 -149.81800508 12.73273134 C-142.46828018 5.4331182 -132.38123567 0.64458993 -122.00221364 0.46720598 C-120.74601609 0.47531259 -120.74601609 0.47531259 -119.46444082 0.48358297 C-118.08296205 0.46864642 -118.08296205 0.46864642 -116.67357462 0.45340811 C-113.59778168 0.42504702 -110.52265749 0.42484472 -107.44674349 0.42470217 C-105.21145167 0.41024046 -102.97617017 0.39410276 -100.74090135 0.37643945 C-94.5927298 0.33315781 -88.44470531 0.31510538 -82.29640566 0.30156718 C-76.30926644 0.28477431 -70.32223799 0.24972382 -64.33517579 0.21605816 C-48.21801472 0.12685368 -32.10081322 0.08076373 -15.98346307 0.04252055 C-10.65563744 0.0298082 -5.32781841 0.01543493 0 0 Z M-134.95100904 30.34285307 C-136.39216276 33.71007126 -136.47297633 36.287992 -136.47119188 39.95125246 C-136.47495301 40.63963404 -136.47871414 41.32801562 -136.48258924 42.03725725 C-136.49155195 44.35075555 -136.47907403 46.6636404 -136.46674776 48.97711611 C-136.46877224 50.65242573 -136.47211175 52.32773419 -136.47665334 54.00303888 C-136.48532179 58.61750311 -136.47521363 63.23176679 -136.462111 67.84621358 C-136.45122011 72.82971714 -136.45762796 77.813202 -136.46189547 82.79671144 C-136.46755285 92.61117815 -136.45714339 102.42556709 -136.44160751 112.24002057 C-136.42392006 123.83566788 -136.4226442 135.43130074 -136.42199191 147.02695942 C-136.42029744 167.93524737 -136.40446205 188.84350101 -136.38050508 209.75177431 C-136.3577429 229.63361317 -136.34322029 249.51543036 -136.33948946 269.39728212 C-136.33925144 270.59900403 -136.33901342 271.80072594 -136.33876818 273.03886366 C-136.33781073 277.88230244 -136.33687301 282.72574122 -136.33596048 287.56918001 C-136.32550266 340.93345372 -136.25943779 394.2975098 -136.14266682 447.6616559 C-136.11801848 458.94187539 -136.09473515 470.22209329 -136.07560396 481.50232363 C-136.03591371 504.71941699 -135.98588128 527.93637901 -135.89604974 551.15333986 C-135.85933019 560.69211756 -135.82819559 570.23081648 -135.81432009 579.76965761 C-135.80274296 587.67046459 -135.77783189 595.57107835 -135.7343992 603.47177738 C-135.71290225 607.44629275 -135.69768086 611.42056116 -135.69974279 615.39514017 C-135.70144492 619.00242857 -135.68492623 622.6091457 -135.65351686 626.21629357 C-135.64158992 628.13058588 -135.64926146 630.04496927 -135.65761924 631.95928049 C-135.63729231 633.65794166 -135.63729231 633.65794166 -135.61655474 635.39091921 C-135.61319227 636.3659411 -135.6098298 637.34096298 -135.60636544 638.34553099 C-134.74828452 642.88064243 -132.2963103 645.14689035 -128.66252995 647.81460488 C-123.17488231 649.67976096 -117.84384778 649.43569707 -112.08685732 649.40322351 C-110.73950469 649.40635391 -109.39215459 649.41079839 -108.04481012 649.41643661 C-104.33169777 649.42814315 -100.61881872 649.42111631 -96.90571008 649.41110275 C-92.87018592 649.40350707 -88.83469812 649.41326666 -84.79917908 649.42083275 C-77.72287174 649.43168234 -70.64663304 649.43133024 -63.57032251 649.42369127 C-53.04776398 649.41236281 -42.52526353 649.41813514 -32.00270541 649.42731619 C-13.21150706 649.44313084 5.57966072 649.44173732 24.37086199 649.43307946 C40.81511682 649.4255399 57.25936042 649.42355936 73.70361662 649.42714739 C75.33827421 649.42749112 75.33827421 649.42749112 77.00595519 649.4278418 C81.4294274 649.42877578 85.8528996 649.42973097 90.27637179 649.43072109 C131.79222872 649.43990304 173.30806616 649.43156986 214.82392008 649.4154304 C251.72763125 649.40119304 288.63131136 649.4024669 325.53502226 649.41681337 C366.97378644 649.43286893 408.41253338 649.43925192 449.85130024 649.42997658 C454.26682456 649.4290144 458.68234888 649.42807588 463.09787321 649.42714739 C464.72875704 649.42679154 464.72875704 649.42679154 466.39258802 649.4264285 C482.82858502 649.42301264 499.26456959 649.42701333 515.70056486 649.43458605 C534.38453703 649.44315146 553.06847379 649.44104579 571.75244153 649.42474382 C582.21584402 649.41591614 592.6791699 649.41538697 603.14257045 649.42668234 C610.12463231 649.43338985 617.10663251 649.42925851 624.08868521 649.41616803 C628.07153298 649.40900579 632.05422811 649.406645 636.03707129 649.41738598 C639.65803261 649.42705183 643.27870539 649.42299651 646.89964554 649.407844 C648.82026882 649.40338169 650.74090893 649.41367329 652.66150683 649.42450684 C660.71116705 649.41603824 660.71116705 649.41603824 667.90074492 646.02570009 C671.0667183 642.53221222 672.02544338 639.43510516 672.02724475 634.77958024 C672.03000449 633.90690207 672.03276423 633.03422391 672.03560761 632.13510096 C672.03252463 630.69312289 672.03252463 630.69312289 672.02937937 629.22201395 C672.03113241 628.19858432 672.03288544 627.17515469 672.0346916 626.12071204 C672.03938022 622.65727566 672.03687878 619.19388073 672.03445768 615.73044252 C672.03632422 613.23591225 672.03862428 610.74138227 672.04132301 608.24685276 C672.04618098 602.80564842 672.04789264 597.36445684 672.04686689 591.92325068 C672.04534529 583.832056 672.04949632 575.74087121 672.05474152 567.64967846 C672.06442603 552.35980815 672.06722617 537.06994119 672.06779858 521.78006817 C672.06825763 509.97526048 672.07031342 498.1704541 672.0734992 486.36564684 C672.07439671 482.97104736 672.07528652 479.57644789 672.07617408 476.18184841 C672.07639513 475.33800788 672.07661618 474.49416735 672.07684392 473.6247559 C672.08300043 449.88042163 672.08694425 426.13608782 672.08650064 402.39175272 C672.08648507 401.4960464 672.08646949 400.60034009 672.08645344 399.67749115 C672.08637033 395.13739113 672.08627128 390.59729111 672.08616873 386.05719109 C672.08614878 385.1554656 672.08612884 384.25374011 672.08610829 383.3246896 C672.08606785 381.50118012 672.08602605 379.67767065 672.0859829 377.85416117 C672.08537 349.47676538 672.0928784 321.09938153 672.10655546 292.72198915 C672.12190508 260.86101461 672.13052237 229.00004791 672.12959224 197.13906944 C672.12951761 193.74384125 672.1294689 190.34861306 672.12943792 186.95338488 C672.12942627 186.11735545 672.12941461 185.28132603 672.12940261 184.41996238 C672.12937179 170.94689835 672.13576658 157.47384466 672.14437019 144.00078371 C672.1528335 130.46783237 672.15384701 116.93489621 672.14726087 103.4019437 C672.14355639 95.35565757 672.14542423 87.30941747 672.15520321 79.2631362 C672.16187925 73.26468999 672.15817429 67.26629855 672.15032998 61.26785176 C672.14878312 58.83381713 672.15065527 56.39977757 672.15619006 53.96574874 C672.16318956 50.6707719 672.15800436 47.37603679 672.14963388 44.08106852 C672.15708615 42.64611394 672.15708615 42.64611394 672.16468897 41.18217039 C672.13181775 35.10940091 671.45449263 31.40045977 668.08620971 26.25235087 C663.02105946 22.71179354 657.96891557 23.34165308 651.93330812 23.3992877 C650.57858804 23.39437549 649.22387444 23.38727185 647.869176 23.37817374 C644.13081815 23.35947019 640.39310981 23.37205433 636.65477007 23.38956368 C632.59375267 23.40311115 628.53283 23.38774662 624.47182125 23.37601286 C617.34919742 23.35946372 610.22676679 23.36159424 603.10414076 23.37583971 C592.51272654 23.3969651 581.92146706 23.38958771 571.33004682 23.37646449 C552.41614672 23.35397709 533.50233581 23.36002118 514.58843559 23.37790059 C498.03622908 23.39345104 481.4840539 23.39932462 464.93184042 23.39555979 C463.83506822 23.39532299 462.73829601 23.39508619 461.60828829 23.39484221 C457.15643002 23.39386733 452.70457177 23.39284652 448.25271353 23.39175711 C406.46621049 23.38166754 364.67976247 23.39995697 322.89327237 23.43147746 C285.74803867 23.45933745 248.60287041 23.46430326 211.45762968 23.44928408 C201.947221 23.44546181 192.43681231 23.44166707 182.92640352 23.43811369 C181.75565273 23.43767587 180.58490195 23.43723806 179.37867386 23.43678698 C148.36445534 23.42555324 117.35024165 23.43289165 86.3360247 23.44599444 C82.99976606 23.44738304 79.66350742 23.44876375 76.32724878 23.45013286 C74.11394904 23.45104224 71.90064932 23.45196491 69.6873496 23.45290096 C53.14404983 23.459704 36.60076894 23.45703023 20.05746984 23.44995356 C1.25085727 23.4419967 -17.55568938 23.44851822 -36.36228745 23.4741286 C-46.89457746 23.48807917 -57.42673479 23.49100709 -67.95902701 23.47819389 C-74.98705233 23.47075376 -82.01496553 23.4777738 -89.04296896 23.49675201 C-93.05211237 23.5071741 -97.06098802 23.51120108 -101.07012855 23.49777346 C-104.71501093 23.48570044 -108.35937979 23.49191806 -112.00421739 23.51293356 C-113.93758405 23.51931642 -115.87098482 23.50603385 -117.80431131 23.49203065 C-125.67376752 23.56246538 -129.88157057 23.99931891 -134.95100904 30.34285307 Z " fill="#939393" transform="translate(244.09925508499146,431.9742999076843)"/>
<path d="M0 0 C1.23999756 0.00410889 2.47999512 0.00821777 3.75756836 0.01245117 C4.41824814 0.01290939 5.07892792 0.01336761 5.7596283 0.01383972 C7.1558512 0.01686071 8.55207078 0.02474251 9.94824219 0.03710938 C12.09248709 0.05537796 14.2363006 0.05761898 16.38061523 0.05737305 C26.88747999 0.0954878 26.88747999 0.0954878 28.03491211 1.24291992 C28.13079335 2.79912388 28.15679244 4.35968446 28.15516663 5.9188385 C28.15722862 7.43544823 28.15722862 7.43544823 28.15933228 8.98269653 C28.155737 10.10118988 28.15214172 11.21968323 28.1484375 12.37207031 C28.14858353 13.54264481 28.14872955 14.7132193 28.14888 15.91926575 C28.14830106 19.13812935 28.14327202 22.35694996 28.13630605 25.57580495 C28.13007168 28.93639392 28.12946864 32.29698365 28.12828064 35.65757751 C28.12516757 42.02534334 28.11695451 48.39309208 28.10693115 54.76085037 C28.09576926 62.00861721 28.09025937 69.25638485 28.08523571 76.50415814 C28.07477188 91.41708827 28.05717291 106.33000239 28.03491211 121.24291992 C29.51604492 121.20811523 29.51604492 121.20811523 31.02709961 121.17260742 C32.9490918 121.14553711 32.9490918 121.14553711 34.90991211 121.11791992 C36.18608398 121.0947168 37.46225586 121.07151367 38.77709961 121.04760742 C42.03491211 121.24291992 42.03491211 121.24291992 44.03491211 123.24291992 C44.38549901 125.97749775 44.49609689 127.56827856 42.91630554 129.87926674 C40.15604649 131.8799307 38.00694254 131.62060572 34.62011719 131.62387085 C33.96630223 131.62855082 33.31248728 131.63323079 32.63885975 131.63805258 C30.44384911 131.65003696 28.24945885 131.64053246 26.05444336 131.63110352 C24.48253006 131.63516771 22.91061961 131.64050873 21.3387146 131.64703369 C17.0660288 131.6607313 12.79355988 131.65539862 8.52087021 131.64589643 C4.05394649 131.63831247 -0.41295839 131.64534193 -4.87988281 131.65005493 C-12.38195131 131.65551617 -19.88393127 131.64831122 -27.38598633 131.6340332 C-36.06510227 131.61770597 -44.74400682 131.62299421 -53.42311764 131.63951242 C-60.86861706 131.6531168 -68.31405276 131.65505209 -75.75956059 131.64719641 C-80.2091576 131.64251412 -84.65865518 131.64191027 -89.10824585 131.65180588 C-93.29106948 131.66045807 -97.47361998 131.65448584 -101.65641403 131.63712311 C-103.1935315 131.63314888 -104.73067188 131.63430827 -106.2677803 131.6409111 C-108.36226381 131.64908017 -110.45586599 131.63886264 -112.55029297 131.62387085 C-113.72352615 131.62273977 -114.89675934 131.6216087 -116.10554504 131.62044334 C-118.96508789 131.24291992 -118.96508789 131.24291992 -120.84262371 130.03503704 C-122.34432345 127.63743553 -122.33983098 126.01312498 -122.33930969 123.18809509 C-122.34632401 122.14350632 -122.35333832 121.09891754 -122.36056519 120.02267456 C-122.35292145 118.8771109 -122.34527771 117.73154724 -122.33740234 116.55126953 C-122.34105301 115.34460129 -122.34470367 114.13793304 -122.34846497 112.8946991 C-122.35518839 109.58472542 -122.34844823 106.27531255 -122.33513284 102.96539378 C-122.32382453 99.50431821 -122.3279253 96.04325732 -122.32987976 92.58216858 C-122.33076282 86.77071292 -122.31967901 80.9593739 -122.30126953 75.14794922 C-122.28009172 68.42402165 -122.27659404 61.70026484 -122.28283149 54.97631067 C-122.28852071 48.51299335 -122.28288538 42.04973632 -122.27165794 35.58642769 C-122.26700708 32.83326671 -122.26614019 30.08014253 -122.26824379 27.32697868 C-122.27047243 23.4863127 -122.25603704 19.64581005 -122.23974609 15.80517578 C-122.24222351 14.65758789 -122.24470093 13.51 -122.24725342 12.32763672 C-122.24016861 11.28586777 -122.2330838 10.24409882 -122.2257843 9.17076111 C-122.22373143 8.26208251 -122.22167856 7.35340391 -122.21956348 6.4171896 C-121.96508789 4.24291992 -121.96508789 4.24291992 -119.96508789 2.24291992 C-117.46508789 1.99291992 -117.46508789 1.99291992 -114.96508789 2.24291992 C-112.96508789 4.24291992 -112.96508789 4.24291992 -112.71899223 6.31624794 C-112.72083582 7.17720259 -112.72267941 8.03815723 -112.72457886 8.92520142 C-112.72182953 9.91240677 -112.7190802 10.89961212 -112.71624756 11.91673279 C-112.72343811 13.00357864 -112.73062866 14.0904245 -112.73803711 15.21020508 C-112.73774506 16.35166489 -112.737453 17.49312469 -112.7371521 18.66917419 C-112.7385498 22.45685323 -112.7541318 26.24433759 -112.76977539 30.03198242 C-112.77350395 32.65229179 -112.77635166 35.27260256 -112.77835083 37.89291382 C-112.78457288 44.09421686 -112.80099344 50.29544958 -112.82104981 56.49672163 C-112.84338632 63.5558741 -112.85439657 70.61502988 -112.86444068 77.67420888 C-112.88535908 92.19714977 -112.92095085 106.72003151 -112.96508789 121.24291992 C-108.01508789 121.24291992 -103.06508789 121.24291992 -97.96508789 121.24291992 C-97.97294312 118.43352905 -97.97294312 118.43352905 -97.98095703 115.56738281 C-97.99705477 109.39270646 -98.00856022 103.21803507 -98.01690006 97.04334354 C-98.02212803 93.29808955 -98.02922411 89.55285817 -98.04052734 85.80761719 C-98.0513593 82.19610305 -98.05736538 78.58461071 -98.05996513 74.97308159 C-98.06181883 73.59231663 -98.06543838 72.21155292 -98.07081795 70.8307972 C-98.07803236 68.9031604 -98.07849598 66.97550185 -98.07861328 65.04785156 C-98.08083389 63.94864883 -98.0830545 62.84944611 -98.08534241 61.7169342 C-97.96508789 59.24291992 -97.96508789 59.24291992 -96.96508789 58.24291992 C-94.75858133 58.14279591 -92.54886403 58.11210812 -90.34008789 58.11010742 C-89.67799316 58.1091507 -89.01589844 58.10819397 -88.33374023 58.10720825 C-86.93155828 58.10652666 -85.52937319 58.1083795 -84.12719727 58.11254883 C-81.97413076 58.11789746 -79.82127287 58.11260323 -77.66821289 58.10620117 C-76.30883743 58.10686196 -74.9494621 58.10814313 -73.59008789 58.11010742 C-71.72223633 58.11179932 -71.72223633 58.11179932 -69.81665039 58.11352539 C-66.96508789 58.24291992 -66.96508789 58.24291992 -65.96508789 59.24291992 C-65.87112732 61.17598491 -65.84765272 63.1125083 -65.8515625 65.04785156 C-65.85163803 66.28906265 -65.85171356 67.53027374 -65.85179138 68.80909729 C-65.85689878 70.17375732 -65.86211479 71.53841694 -65.86743164 72.90307617 C-65.86929589 74.29170175 -65.87071976 75.68032799 -65.87171936 77.06895447 C-65.87554403 80.73013107 -65.88537386 84.39126822 -65.89642334 88.0524292 C-65.90663857 91.78584255 -65.91121722 95.51926226 -65.91625977 99.25268555 C-65.92699619 106.58278377 -65.94459255 113.9128413 -65.96508789 121.24291992 C-61.34508789 121.24291992 -56.72508789 121.24291992 -51.96508789 121.24291992 C-51.96952911 120.09477814 -51.97397034 118.94663635 -51.97854614 117.76370239 C-52.0190258 106.96268696 -52.04904028 96.16168684 -52.06871223 85.36061287 C-52.07916563 79.80718966 -52.09335313 74.25382751 -52.1159668 68.70043945 C-52.13763981 63.34475985 -52.14964479 57.9891391 -52.15484238 52.63341904 C-52.15854812 50.5864049 -52.16578413 48.53939412 -52.176548 46.49240494 C-52.19098931 43.6332926 -52.19306893 40.77442593 -52.19213867 37.9152832 C-52.19932922 37.06220581 -52.20651978 36.20912842 -52.21392822 35.3302002 C-52.19319221 29.47102424 -52.19319221 29.47102424 -49.96508789 27.24291992 C-45.84741271 26.84491455 -41.72420127 26.91387275 -37.58886719 26.92724609 C-35.53860175 26.93040296 -33.48978384 26.90696233 -31.43969727 26.8815918 C-29.50513672 26.880625 -29.50513672 26.880625 -27.53149414 26.87963867 C-26.34499268 26.87665771 -25.15849121 26.87367676 -23.93603516 26.87060547 C-20.60484516 27.28806498 -19.9682155 27.6729047 -17.96508789 30.24291992 C-17.68435964 33.2119331 -17.58640398 35.96871739 -17.62451172 38.93701172 C-17.6238546 40.26903122 -17.6238546 40.26903122 -17.6231842 41.62796021 C-17.62527599 44.56624254 -17.64862549 47.50395589 -17.67211914 50.44213867 C-17.6777137 52.47809029 -17.68198446 54.51404595 -17.6849823 56.55000305 C-17.69644204 61.91113415 -17.72591902 67.2720218 -17.75909424 72.63305664 C-17.78977075 78.10258694 -17.80348247 83.57215654 -17.81860352 89.04174805 C-17.85078756 99.77557903 -17.90199762 110.50922924 -17.96508789 121.24291992 C-13.67508789 121.24291992 -9.38508789 121.24291992 -4.96508789 121.24291992 C-4.96952911 119.75652008 -4.97397034 118.27012024 -4.97854614 116.73867798 C-5.01901696 102.75897192 -5.049156 88.77927345 -5.06871223 74.79952431 C-5.07903408 67.61168697 -5.09311169 60.4238933 -5.1159668 53.23608398 C-5.13587296 46.97272856 -5.14879772 40.70940475 -5.15326488 34.44601858 C-5.15587699 31.12819883 -5.1630762 27.8104909 -5.176548 24.49269485 C-5.19097858 20.79300733 -5.19306937 17.09350978 -5.19213867 13.39379883 C-5.19932922 12.2882515 -5.20651978 11.18270416 -5.21392822 10.0436554 C-5.21117889 9.03962173 -5.20842957 8.03558807 -5.20559692 7.00112915 C-5.20744051 6.12542582 -5.2092841 5.24972248 -5.21118355 4.34748268 C-4.79183702 0.76131181 -3.44585094 0.28230726 0 0 Z " fill="#CFD0D0" transform="translate(828.965087890625,514.757080078125)"/>
<path d="M0 0 C2.5 0.25 2.5 0.25 4.5 2.25 C4.74609566 4.46388435 4.74609566 4.46388435 4.74050903 7.2739563 C4.74325836 8.33688904 4.74600769 9.39982178 4.74884033 10.4949646 C4.74164978 11.6659671 4.73445923 12.8369696 4.72705078 14.04345703 C4.72734283 15.27269897 4.72763489 16.50194092 4.72793579 17.76843262 C4.72677906 21.1443349 4.71673089 24.51999425 4.70278788 27.89585352 C4.69030718 31.4219253 4.68911212 34.94800012 4.68673706 38.47409058 C4.68051444 45.15350675 4.6640931 51.83285766 4.64403808 58.51224506 C4.62170335 66.11552332 4.61069177 73.71880466 4.60064721 81.32210755 C4.57972751 96.96478263 4.54304157 112.60736778 4.5 128.25 C16.05 128.25 27.6 128.25 39.5 128.25 C39.47679687 122.64257812 39.45359375 117.03515625 39.4296875 111.2578125 C39.41947233 107.71223498 39.40984469 104.16667551 39.40234375 100.62109375 C39.39037316 94.9893824 39.37618936 89.35773588 39.34912109 83.72607422 C39.32744174 79.18735924 39.31544177 74.64871376 39.31024551 70.10995102 C39.30654091 68.37553691 39.29930706 66.64112674 39.28853989 64.9067421 C39.27409005 62.48347914 39.2720193 60.06050591 39.27294922 57.63720703 C39.26575867 56.91503998 39.25856812 56.19287292 39.25115967 55.44882202 C39.27189568 50.47810432 39.27189568 50.47810432 41.5 48.25 C44.265625 47.99121094 44.265625 47.99121094 47.75 47.984375 C49.62171875 47.98050781 49.62171875 47.98050781 51.53125 47.9765625 C53.49578125 47.98816406 53.49578125 47.98816406 55.5 48 C56.8096875 47.99226562 58.119375 47.98453125 59.46875 47.9765625 C60.7165625 47.97914063 61.964375 47.98171875 63.25 47.984375 C64.39984375 47.98663086 65.5496875 47.98888672 66.734375 47.99121094 C69.5 48.25 69.5 48.25 71.5 50.25 C71.6877701 52.74962246 71.75194071 55.13744197 71.72705078 57.63720703 C71.72734283 58.39827759 71.72763489 59.15934814 71.72793579 59.94348145 C71.72653981 62.46504016 71.71096618 64.98630525 71.6953125 67.5078125 C71.69158332 69.25373167 71.6887359 70.99965294 71.68673706 72.74557495 C71.67909311 77.3454972 71.65943813 81.94529357 71.6373291 86.54516602 C71.61688704 91.2371246 71.60773886 95.92910349 71.59765625 100.62109375 C71.57619292 109.83078454 71.54204783 119.04038181 71.5 128.25 C74.8 128.25 78.1 128.25 81.5 128.25 C81.49777939 126.78865631 81.49555878 125.32731262 81.49327087 123.82168579 C81.4730352 110.0774296 81.4579658 96.33317457 81.44818783 82.58890724 C81.44302698 75.52215604 81.4359883 68.45541595 81.42456055 61.38867188 C81.41354587 54.57412994 81.40772234 47.75959956 81.40512276 40.94504929 C81.40326921 38.33982537 81.39964993 35.73460211 81.39426994 33.12938309 C81.38705443 29.49200299 81.38600928 25.85467121 81.38647461 22.21728516 C81.38287933 21.1304393 81.37928406 20.04359344 81.37557983 18.92381287 C81.3769545 17.93660751 81.37832916 16.94940216 81.37974548 15.93228149 C81.37882369 15.07132685 81.3779019 14.2103722 81.37695217 13.32332802 C81.5 11.25 81.5 11.25 82.5 9.25 C86.6117256 9.22534254 90.72342278 9.20716041 94.83520508 9.19506836 C96.23495228 9.1900292 97.6346942 9.18319784 99.03442383 9.17456055 C101.04245777 9.1624768 103.05052957 9.15730193 105.05859375 9.15234375 C106.87315063 9.14448853 106.87315063 9.14448853 108.72436523 9.13647461 C111.5 9.25 111.5 9.25 112.5 10.25 C112.59581822 11.78085839 112.62188108 13.31613756 112.62025452 14.84999084 C112.62231651 16.34135811 112.62231651 16.34135811 112.62442017 17.862854 C112.61902725 19.51254181 112.61902725 19.51254181 112.61352539 21.19555664 C112.61367142 22.34662399 112.61381744 23.49769135 112.6139679 24.68363953 C112.61326818 28.50916391 112.60547302 32.33464031 112.59765625 36.16015625 C112.59579228 38.80431593 112.59436828 41.44847596 112.59336853 44.09263611 C112.59025549 50.35415417 112.58204248 56.61565486 112.57201904 62.87716526 C112.56085705 70.00401537 112.55534724 77.1308663 112.55032361 84.25772297 C112.53985984 98.92182452 112.52206044 113.58591144 112.5 128.25 C116.13 128.25 119.76 128.25 123.5 128.25 C123.49555878 127.41506012 123.49111755 126.58012024 123.48654175 125.71987915 C123.44651408 117.86209375 123.41604063 110.00434245 123.39637566 102.14647865 C123.38592593 98.10639736 123.3717452 94.06640011 123.34912109 90.02636719 C123.32743488 86.12955267 123.31544033 82.23281913 123.31024551 78.33594894 C123.30654214 76.84714864 123.29931062 75.3583529 123.28853989 73.86958694 C123.27408081 71.78877333 123.27201967 69.70829694 123.27294922 67.62744141 C123.268508 66.44163483 123.26406677 65.25582825 123.25949097 64.03408813 C123.5 61.25 123.5 61.25 125.5 59.25 C128.17382812 58.99121094 128.17382812 58.99121094 131.53125 58.984375 C132.73394531 58.98179687 133.93664062 58.97921875 135.17578125 58.9765625 C136.43777344 58.98429688 137.69976562 58.99203125 139 59 C140.26199219 58.99226562 141.52398437 58.98453125 142.82421875 58.9765625 C144.02691406 58.97914063 145.22960937 58.98171875 146.46875 58.984375 C147.57669922 58.98663086 148.68464844 58.98888672 149.82617188 58.99121094 C152.5 59.25 152.5 59.25 154.5 61.25 C154.74050903 64.03408813 154.74050903 64.03408813 154.72705078 67.62744141 C154.72734283 68.28122269 154.72763489 68.93500397 154.72793579 69.6085968 C154.72654065 71.77305296 154.7109712 73.93716636 154.6953125 76.1015625 C154.69158302 77.60085868 154.68873574 79.1001573 154.68673706 80.59945679 C154.67909548 84.54836743 154.6594426 88.49713129 154.6373291 92.44598389 C154.6168819 96.47438572 154.60773776 100.50281124 154.59765625 104.53125 C154.57619711 112.43756741 154.54205495 120.34376545 154.5 128.25 C155.49902344 128.23839844 156.49804688 128.22679687 157.52734375 128.21484375 C158.81769531 128.20582031 160.10804688 128.19679688 161.4375 128.1875 C162.72527344 128.17589844 164.01304687 128.16429687 165.33984375 128.15234375 C168.5 128.25 168.5 128.25 169.5 129.25 C169.6875 132.6875 169.6875 132.6875 169.5 136.25 C166.66928222 139.08071778 164.8317602 138.50413004 160.86378479 138.51069641 C160.17407229 138.51452196 159.48435979 138.51834751 158.77374691 138.52228898 C156.45138308 138.53264789 154.12926516 138.52862144 151.80688477 138.5246582 C150.14645152 138.52900309 148.48602028 138.53418549 146.82559204 138.54014587 C142.30703563 138.5535713 137.78856268 138.55411061 133.26999021 138.55158257 C129.5024081 138.55051524 125.73484305 138.55539014 121.96726459 138.560188 C113.08127223 138.57129548 104.19532213 138.57171365 95.30932617 138.56567383 C86.13207482 138.5596321 76.95497671 138.57194726 67.77775151 138.5932439 C59.90765578 138.61083793 52.03760892 138.61686473 44.16749424 138.61360615 C39.46301068 138.6117896 34.75863642 138.61446636 30.05417061 138.62832069 C25.63089269 138.64085873 21.20785429 138.63899333 16.78458023 138.62590981 C15.15876753 138.62353564 13.53293818 138.62630862 11.90714455 138.63453293 C9.69221466 138.6449317 7.47809872 138.63695616 5.26319885 138.6242218 C3.40184721 138.62447341 3.40184721 138.62447341 1.50289249 138.62473011 C-1.5 138.25 -1.5 138.25 -3.39931107 137.06389236 C-4.91503274 134.56604225 -4.87472354 132.77114237 -4.8742218 129.85350037 C-4.88123611 128.7331842 -4.88825043 127.61286804 -4.89547729 126.45860291 C-4.88783356 125.2288826 -4.88018982 123.99916229 -4.87231445 122.73217773 C-4.87596512 121.43772736 -4.87961578 120.14327698 -4.88337708 118.80960083 C-4.8927901 115.25800561 -4.88335789 111.70668576 -4.87004495 108.15511203 C-4.85873927 104.44179152 -4.86283721 100.72848475 -4.86479187 97.01515198 C-4.86567502 90.77999362 -4.85458927 84.54494395 -4.83618164 78.30981445 C-4.81500439 71.09510598 -4.81150596 63.88055666 -4.8177436 56.6658234 C-4.82343237 49.73157611 -4.81779796 42.79738502 -4.80657005 35.86314583 C-4.80191854 32.90902737 -4.80105258 29.9549432 -4.8031559 27.00082207 C-4.80538415 22.87993865 -4.79095079 18.75927948 -4.7746582 14.63842773 C-4.77713562 13.4066832 -4.77961304 12.17493866 -4.78216553 10.90586853 C-4.77508072 9.78837219 -4.76799591 8.67087585 -4.76069641 7.51951599 C-4.75864354 6.5444683 -4.75659067 5.5694206 -4.75447559 4.56482601 C-4.38165753 1.17350292 -3.36109976 0.33610998 0 0 Z " fill="#CFD0D0" transform="translate(159.5,900.75)"/>
<path d="M0 0 C0.74056641 0.00451172 1.48113281 0.00902344 2.24414062 0.01367188 C4.05862899 0.02537825 5.87307534 0.04331102 7.6875 0.0625 C7.6844838 0.9489772 7.68146759 1.83545441 7.67835999 2.74879456 C7.65607568 11.12042001 7.66736402 19.49119178 7.71596622 27.86271763 C7.73977782 32.16629041 7.7507988 36.46909011 7.73217773 40.77270508 C7.71466978 44.92940643 7.73129735 49.08472186 7.77117729 53.24125481 C7.78044128 54.82357331 7.77759309 56.40601248 7.76219368 57.98828316 C7.43781684 66.49654851 7.43781684 66.49654851 10.05978394 74.35299683 C11.83221868 76.11527382 13.69458395 77.55796807 15.6875 79.0625 C16.84797657 80.33209146 17.97796678 81.63010794 19.07861328 82.9519043 C22.98020634 87.46889936 27.17957865 91.64503622 31.4296875 95.83203125 C33.08867074 97.47838557 34.74752113 99.12487377 36.40625 100.77148438 C38.99845058 103.33874095 41.59223644 105.90435769 44.18847656 108.4675293 C46.71071643 110.9596974 49.22680855 113.45794129 51.7421875 115.95703125 C52.52439667 116.72578079 53.30660583 117.49453033 54.11251831 118.28657532 C55.18966599 119.35865486 55.18966599 119.35865486 56.28857422 120.45239258 C56.9225412 121.07890213 57.55650818 121.70541168 58.20968628 122.35090637 C59.6875 124.0625 59.6875 124.0625 60.6875 127.0625 C43.55009932 141.5807885 21.65065328 146.52811004 -0.3125 145.0625 C-15.96679791 143.18357356 -30.75571802 135.60590744 -42.3125 125.0625 C-42.9209375 124.54558594 -43.529375 124.02867188 -44.15625 123.49609375 C-55.62049911 113.10010422 -64.34501284 95.75142194 -65.51782227 80.36962891 C-66.2407931 58.28111323 -62.67780632 39.52767793 -47.703125 22.515625 C-35.13186849 9.61570819 -18.32491636 -0.21289 0 0 Z " fill="#D0D0D0" transform="translate(769.3125,903.9375)"/>
<path d="M0 0 C16.44077848 0.34111884 32.37298427 8.68803729 44.41479492 19.38720703 C45.0515918 19.94150391 45.68838867 20.49580078 46.34448242 21.06689453 C57.98447128 31.87915085 66.48872998 49.4908952 67.62573242 65.32470703 C67.65957657 67.70733518 67.67302334 70.01845786 67.41479492 72.38720703 C65.75590753 74.04609442 63.7579471 73.51283228 61.54188538 73.5227356 C60.49767677 73.51969925 60.49767677 73.51969925 59.43237305 73.51660156 C58.70231552 73.51835388 57.972258 73.5201062 57.22007751 73.52191162 C54.79537614 73.52633002 52.3707471 73.5233922 49.94604492 73.52001953 C48.26835109 73.52069257 46.59065736 73.5216626 44.91296387 73.5229187 C41.39224318 73.52439566 37.87154782 73.52224119 34.35083008 73.51757812 C29.82768997 73.51188083 25.30460918 73.51515985 20.78147125 73.52115059 C17.31577097 73.52475626 13.85008486 73.52361759 10.38438416 73.5210228 C8.71614068 73.52035354 7.04789593 73.52118189 5.37965393 73.52350235 C3.05213999 73.52602898 0.72472345 73.52218816 -1.6027832 73.51660156 C-2.29892227 73.51862579 -2.99506134 73.52065002 -3.71229553 73.5227356 C-8.47094234 73.50146977 -8.47094234 73.50146977 -9.58520508 72.38720703 C-9.6848066 70.18395729 -9.71320265 67.97747213 -9.71459961 65.77197266 C-9.71635193 65.08092941 -9.71810425 64.38988617 -9.71990967 63.67790222 C-9.72432762 61.38306196 -9.72139041 59.08829814 -9.71801758 56.79345703 C-9.71869063 55.20544418 -9.71966067 53.61743144 -9.72091675 52.02941895 C-9.72239364 48.69701153 -9.72023944 45.36463087 -9.71557617 42.03222656 C-9.70987888 37.75122193 -9.71315793 33.47027998 -9.71914864 29.18927765 C-9.72275448 25.90886967 -9.72161556 22.62847666 -9.71902084 19.34806824 C-9.71835164 17.76913953 -9.71917978 16.19020949 -9.7215004 14.61128235 C-9.7240273 12.40829851 -9.72018583 10.20541755 -9.71459961 8.00244141 C-9.71380402 6.74637085 -9.71300842 5.49030029 -9.71218872 4.19616699 C-9.4540484 -1.51406317 -4.77349461 0.02880805 0 0 Z " fill="#CFD0D0" transform="translate(797.585205078125,891.61279296875)"/>
<path d="M0 0 C6.1421796 5.63142266 9.66359144 13.31105238 10.1340332 21.61743164 C10.18882515 24.88988638 10.2336253 28.16149122 10.25219727 31.43432617 C10.26365165 32.8354711 10.28399867 34.23657469 10.3137207 35.63745117 C10.54582855 46.59838782 9.65428701 56.01026532 2.76953125 64.9296875 C-3.37982593 71.22115168 -9.39252284 72.86414421 -18.10546875 72.9921875 C-25.54105516 72.88271487 -30.43331739 71.80290293 -35.9296875 66.76171875 C-45.18411651 57.04165809 -46.23538173 46.68258563 -46.29296875 33.8046875 C-46.32390625 32.1040918 -46.32390625 32.1040918 -46.35546875 30.36914062 C-46.40276356 20.11207879 -44.75031133 10.5896529 -38.04296875 2.4921875 C-27.58686477 -7.60490861 -11.81751648 -8.72191465 0 0 Z " fill="#4A4A4A" transform="translate(429.04296875,690.5078125)"/>
<path d="M0 0 C1.14339844 -0.02900391 2.28679687 -0.05800781 3.46484375 -0.08789062 C13.96501019 -0.16553691 23.11171213 1.8393947 30.90234375 9.24609375 C38.33882205 18.16649516 38.84827756 27.25788403 38.9375 38.375 C38.96650391 39.55255859 38.99550781 40.73011719 39.02539062 41.94335938 C39.10154072 52.52822246 37.17143057 61.73494248 29.6875 69.58984375 C22.77762185 75.36116243 15.30562133 77.45378385 6.44921875 77.41015625 C4.71381836 77.40532227 4.71381836 77.40532227 2.94335938 77.40039062 C1.74517578 77.39201172 0.54699219 77.38363281 -0.6875 77.375 C-1.90501953 77.37048828 -3.12253906 77.36597656 -4.37695312 77.36132812 C-7.37635226 77.34956578 -10.37565089 77.33312826 -13.375 77.3125 C-13.39812428 67.42060624 -13.41591552 57.52871886 -13.42681217 47.63680363 C-13.43204082 43.0440736 -13.43913812 38.451362 -13.45043945 33.85864258 C-13.461269 29.43016312 -13.46727698 25.00170144 -13.46987724 20.57320976 C-13.47173137 18.87984372 -13.47535175 17.18647871 -13.48073006 15.49312019 C-13.4879414 13.12958768 -13.4889909 10.76612955 -13.48852539 8.40258789 C-13.49212067 7.69552704 -13.49571594 6.98846619 -13.49942017 6.25997925 C-13.4808114 -2.41518396 -7.33046128 0.0599547 0 0 Z " fill="#4A4A4A" transform="translate(490.375,685.6875)"/>
<path d="M0 0 C2.00378386 -0.00960932 4.00742712 -0.04076003 6.01098633 -0.07226562 C15.68152279 -0.11127939 23.31269145 0.79787383 30.97387695 7.24023438 C35.63580197 13.21965994 35.8290583 19.92482768 34.97387695 27.24023438 C33.43346323 31.5533928 31.36831102 34.19694866 27.97387695 37.24023438 C28.45598633 37.61535156 28.9380957 37.99046875 29.43481445 38.37695312 C30.06645508 38.88871094 30.6980957 39.40046875 31.34887695 39.92773438 C31.97536133 40.42660156 32.6018457 40.92546875 33.24731445 41.43945312 C37.61217192 45.99194022 37.33751693 51.3366288 37.2277832 57.29882812 C36.71431551 63.24715389 34.27132904 68.05587313 29.97387695 72.24023438 C22.0269779 77.72157277 12.60075392 76.69201044 3.41137695 76.49023438 C1.81439417 76.47013635 0.21738694 76.45189142 -1.37963867 76.43554688 C-5.26241186 76.39181703 -9.14399327 76.32297507 -13.02612305 76.24023438 C-13.0492475 66.47872449 -13.06703866 56.71722108 -13.07793522 46.95568943 C-13.08316382 42.42349343 -13.09026105 37.89131611 -13.1015625 33.35913086 C-13.11239219 28.98900607 -13.11840005 24.6188993 -13.12100029 20.24876213 C-13.12285439 18.57772475 -13.12647472 16.9066884 -13.1318531 15.23565865 C-13.13906463 12.90325886 -13.14011394 10.57093445 -13.13964844 8.23852539 C-13.14324371 7.54081528 -13.14683899 6.84310516 -13.15054321 6.12425232 C-13.13197397 -2.41882305 -7.27139066 0.02108923 0 0 Z " fill="#4B4B4B" transform="translate(609.026123046875,789.759765625)"/>
<path d="M0 0 C2.9375 0.8125 2.9375 0.8125 4.9375 3.8125 C5.18359566 6.30560589 5.18359566 6.30560589 5.17800903 9.33634949 C5.18075836 10.48479843 5.18350769 11.63324738 5.18634033 12.8164978 C5.17914978 14.07741241 5.17195923 15.33832703 5.16455078 16.63745117 C5.16398667 17.97777803 5.16430322 19.31810551 5.16543579 20.65843201 C5.16601033 24.29868813 5.15423973 27.93881284 5.14028788 31.57903838 C5.12779733 35.38270768 5.12661134 39.18637989 5.12423706 42.99006653 C5.11801736 50.19360347 5.10159992 57.39707981 5.08153808 64.60059005 C5.05919432 72.80122058 5.04818949 81.00185399 5.03814721 89.20250738 C5.01723411 106.07253999 4.98204862 122.94251359 4.9375 139.8125 C6.17936097 139.81111731 6.17936097 139.81111731 7.44631004 139.80970669 C27.56728941 139.78764699 47.6882667 139.77108626 67.8092556 139.76068783 C77.53950814 139.7555259 87.26975263 139.74848516 97 139.73706055 C105.47833913 139.72711056 113.95667242 139.72064582 122.43501723 139.71841151 C126.9265176 139.71710494 131.41800127 139.71402245 135.90949631 139.70676994 C140.1332212 139.70000478 144.35692244 139.69788406 148.58065224 139.69939232 C150.1343187 139.69911622 151.68798592 139.69711402 153.24164772 139.69329453 C155.35606407 139.68834955 157.47039009 139.68950471 159.58480835 139.69224548 C161.36294702 139.69086279 161.36294702 139.69086279 163.17700768 139.68945217 C165.9375 139.8125 165.9375 139.8125 167.9375 140.8125 C168.0625 144.1875 168.0625 144.1875 167.9375 147.8125 C165.10678222 150.64321778 163.2692602 150.06663004 159.30128479 150.07319641 C158.61157229 150.07702196 157.92185979 150.08084751 157.21124691 150.08478898 C154.88888308 150.09514789 152.56676516 150.09112144 150.24438477 150.0871582 C148.58395152 150.09150309 146.92352028 150.09668549 145.26309204 150.10264587 C140.74453563 150.1160713 136.22606268 150.11661061 131.70749021 150.11408257 C127.9399081 150.11301524 124.17234305 150.11789014 120.40476459 150.122688 C111.51877223 150.13379548 102.63282213 150.13421365 93.74682617 150.12817383 C84.56957482 150.1221321 75.39247671 150.13444726 66.21525151 150.1557439 C58.34515578 150.17333793 50.47510892 150.17936473 42.60499424 150.17610615 C37.90051068 150.1742896 33.19613642 150.17696636 28.49167061 150.19082069 C24.06839269 150.20335873 19.64535429 150.20149333 15.22208023 150.18840981 C13.59626753 150.18603564 11.97043818 150.18880862 10.34464455 150.19703293 C8.12971466 150.2074317 5.91559872 150.19945616 3.70069885 150.1867218 C1.83934721 150.18697341 1.83934721 150.18697341 -0.05960751 150.18723011 C-3.0625 149.8125 -3.0625 149.8125 -4.9613905 148.65486526 C-6.53263736 146.02587093 -6.44020209 144.01636342 -6.44345093 140.96043396 C-6.4519104 139.73914795 -6.46036987 138.51786194 -6.46908569 137.25956726 C-6.46325266 135.90408192 -6.45710815 134.5485979 -6.45068359 133.19311523 C-6.45474811 131.76736041 -6.46008931 130.34160873 -6.46661377 128.91586304 C-6.48030643 125.04198465 -6.47498112 121.16834557 -6.46547651 117.29446292 C-6.45789144 113.24480965 -6.46492217 109.19517713 -6.46963501 105.14552307 C-6.47509531 98.34543165 -6.46789313 91.54543792 -6.45361328 84.74536133 C-6.43727964 76.87623918 -6.44257927 69.00735012 -6.4590925 61.1382336 C-6.47269177 54.38828355 -6.47463489 47.6384038 -6.46677649 40.88844448 C-6.4620922 36.85414848 -6.46149588 32.81996216 -6.47138596 28.78567314 C-6.48003099 24.99435217 -6.47407929 21.2033328 -6.45670319 17.41204453 C-6.45272537 16.0180251 -6.45389444 14.62398043 -6.46049118 13.22997093 C-6.46864475 11.3325171 -6.45662423 9.43500802 -6.44345093 7.5375824 C-6.44231985 6.47404258 -6.44118877 5.41050276 -6.44002342 4.31473446 C-6.31544069 3.48899709 -6.19085796 2.66325972 -6.0625 1.8125 C-3.0625 -0.1875 -3.0625 -0.1875 0 0 Z " fill="#CECFCF" transform="translate(161.0625,496.1875)"/>
<path d="M0 0 C1.39456867 0.00574201 2.78910972 0.01875397 4.18359375 0.03515625 C6.15380493 0.05171265 6.15380493 0.05171265 8.16381836 0.06860352 C9.30471924 0.07819092 10.44562012 0.08777832 11.62109375 0.09765625 C17.21582226 11.21934402 22.70239889 22.38924853 28.12109375 33.59765625 C30.59609375 38.71265625 33.07109375 43.82765625 35.62109375 49.09765625 C35.95109375 32.92765625 36.28109375 16.75765625 36.62109375 0.09765625 C41.24109375 0.09765625 45.86109375 0.09765625 50.62109375 0.09765625 C52.27998114 1.75654364 51.746719 3.75450407 51.75662231 5.9705658 C51.75459808 6.66670486 51.75257385 7.36284393 51.75048828 8.08007812 C51.7522406 8.81013565 51.75399292 9.54019318 51.75579834 10.29237366 C51.76021674 12.71707503 51.75727892 15.14170407 51.75390625 17.56640625 C51.75457929 19.24410008 51.75554932 20.92179381 51.75680542 22.5994873 C51.75828238 26.12020799 51.75612791 29.64090335 51.75146484 33.16162109 C51.74576755 37.68476121 51.74904657 42.20784199 51.75503731 46.73097992 C51.75864298 50.1966802 51.75750431 53.66236632 51.75490952 57.12806702 C51.75424026 58.7963105 51.75506861 60.46455524 51.75738907 62.13279724 C51.7599157 64.46031119 51.75607488 66.78772773 51.75048828 69.11523438 C51.75251251 69.81137344 51.75453674 70.50751251 51.75662231 71.2247467 C51.73535649 75.98339351 51.73535649 75.98339351 50.62109375 77.09765625 C48.09059973 77.17079192 45.58804538 77.19013152 43.05859375 77.16015625 C41.9922168 77.15338867 41.9922168 77.15338867 40.90429688 77.14648438 C39.14319362 77.13466489 37.38213339 77.11672888 35.62109375 77.09765625 C27.10111769 61.33373742 19.35999688 45.25830691 11.62109375 29.09765625 C11.29109375 44.93765625 10.96109375 60.77765625 10.62109375 77.09765625 C6.00109375 77.09765625 1.38109375 77.09765625 -3.37890625 77.09765625 C-5.03779364 75.43876886 -4.5045315 73.44080843 -4.51443481 71.2247467 C-4.51241058 70.52860764 -4.51038635 69.83246857 -4.50830078 69.11523438 C-4.5100531 68.38517685 -4.51180542 67.65511932 -4.51361084 66.90293884 C-4.51802924 64.47823747 -4.51509142 62.05360843 -4.51171875 59.62890625 C-4.51239179 57.95121242 -4.51336182 56.27351869 -4.51461792 54.5958252 C-4.51609488 51.07510451 -4.51394041 47.55440915 -4.50927734 44.03369141 C-4.50358005 39.51055129 -4.50685907 34.98747051 -4.51284981 30.46433258 C-4.51645548 26.9986323 -4.51531681 23.53294618 -4.51272202 20.06724548 C-4.51205276 18.399002 -4.51288111 16.73075726 -4.51520157 15.06251526 C-4.5177282 12.73500131 -4.51388738 10.40758477 -4.50830078 8.08007812 C-4.51032501 7.38393906 -4.51234924 6.68779999 -4.51443481 5.9705658 C-4.48833277 0.1297206 -4.48833277 0.1297206 0 0 Z " fill="#4D4D4D" transform="translate(319.37890625,685.90234375)"/>
<path d="M0 0 C4.95 0 9.9 0 15 0 C21.48271691 19.13780788 27.80644904 38.31207632 33.75 57.625 C34.01574829 58.48545929 34.28149658 59.34591858 34.55529785 60.23245239 C35.30608342 62.66690521 36.05246761 65.10265272 36.796875 67.5390625 C37.13350159 68.63191307 37.13350159 68.63191307 37.47692871 69.74684143 C39 74.76780408 39 74.76780408 39 77 C33.72 77 28.44 77 23 77 C19 64.375 19 64.375 19 61 C11.41 61 3.82 61 -4 61 C-4.33 63.97 -4.66 66.94 -5 70 C-5.66 72.31 -6.32 74.62 -7 77 C-12.28 77 -17.56 77 -23 77 C-22.42686114 69.13100883 -19.96974514 61.8679333 -17.59765625 54.39453125 C-17.15493005 52.98321732 -16.71275491 51.57173041 -16.27110291 50.16007996 C-15.34804622 47.21452855 -14.42058721 44.27041585 -13.48950195 41.32739258 C-12.29874399 37.56343919 -11.11568288 33.79712544 -9.93547916 30.02985096 C-8.80467819 26.42141352 -7.67006314 22.81417899 -6.53515625 19.20703125 C-6.32054308 18.52381113 -6.10592991 17.84059101 -5.88481331 17.13666725 C-5.27434505 15.1956755 -4.66079509 13.2556538 -4.04711914 11.31567383 C-3.69927872 10.2139534 -3.35143829 9.11223297 -2.99305725 7.97712708 C-2.09439956 5.28300431 -1.05476803 2.63692008 0 0 Z " fill="#4B4B4B" transform="translate(669,686)"/>
<path d="M0 0 C4.95 0 9.9 0 15 0 C18.22756203 6.92057522 20.36801151 14.19659952 22.6328125 21.47265625 C23.07432665 22.88323857 23.51605183 24.29375486 23.95797729 25.70420837 C24.87984463 28.64946701 25.79902312 31.59554761 26.71630859 34.54223633 C27.88900138 38.30856453 29.06861615 42.07268259 30.25027657 45.83620548 C31.16251684 48.74445351 32.07096479 51.65387552 32.97829819 54.56365776 C33.41167654 55.95182765 33.84624331 57.33962713 34.28204727 58.72703743 C34.89127352 60.66846161 35.49482171 62.61166479 36.09814453 64.55493164 C36.44217316 65.65744766 36.78620178 66.75996368 37.14065552 67.89588928 C38 71 38 71 39 77 C33.72 77 28.44 77 23 77 C19 64.375 19 64.375 19 61 C11.41 61 3.82 61 -4 61 C-4.33 63.97 -4.66 66.94 -5 70 C-5.66 71.98 -6.32 73.96 -7 76 C-12.28 76 -17.56 76 -23 76 C-21.60578967 69.2898282 -19.80299401 62.82013158 -17.734375 56.2890625 C-17.41849426 55.28144867 -17.10261353 54.27383484 -16.77716064 53.23568726 C-15.77159984 50.03101514 -14.76088652 46.82799564 -13.75 43.625 C-13.08690019 41.51442952 -12.4241371 39.40375321 -11.76171875 37.29296875 C-9.84633157 31.19367325 -7.92425247 25.09650365 -6 19 C-5.54258423 17.55046936 -5.54258423 17.55046936 -5.07592773 16.07165527 C-3.38512197 10.71406675 -1.69314307 5.35685031 0 0 Z " fill="#4B4B4B" transform="translate(285,790)"/>
<path d="M0 0 C1.93166016 0.01740234 1.93166016 0.01740234 3.90234375 0.03515625 C5.19269531 0.04417969 6.48304688 0.05320312 7.8125 0.0625 C8.81152344 0.07410156 9.81054688 0.08570313 10.83984375 0.09765625 C13.47829601 6.91054654 15.73795442 13.82032114 17.96484375 20.77734375 C18.3530127 21.98528595 18.74118164 23.19322815 19.14111328 24.43777466 C19.95893128 26.98410461 20.77601686 29.53065462 21.59179688 32.07763672 C22.62859054 35.31452035 23.66792571 38.55058056 24.7081604 41.78635979 C25.71147383 44.90800611 26.71313263 48.03018296 27.71484375 51.15234375 C28.08367676 52.3005661 28.45250977 53.44878845 28.83251953 54.63180542 C29.84207448 57.784895 30.84421489 60.94014365 31.83984375 64.09765625 C32.29665527 65.54377289 32.29665527 65.54377289 32.76269531 67.019104 C33.03823242 67.91014832 33.31376953 68.80119263 33.59765625 69.71923828 C33.83887207 70.49574738 34.08008789 71.27225647 34.32861328 72.07229614 C34.83984375 74.09765625 34.83984375 74.09765625 34.83984375 77.09765625 C29.55984375 77.09765625 24.27984375 77.09765625 18.83984375 77.09765625 C14.83984375 64.47265625 14.83984375 64.47265625 14.83984375 61.09765625 C7.57984375 61.09765625 0.31984375 61.09765625 -7.16015625 61.09765625 C-7.63453125 63.36640625 -8.10890625 65.63515625 -8.59765625 67.97265625 C-10.03515625 74.84765625 -10.03515625 74.84765625 -11.16015625 77.09765625 C-16.44015625 77.09765625 -21.72015625 77.09765625 -27.16015625 77.09765625 C-25.81138368 70.65397137 -24.12735953 64.42471756 -22.1484375 58.1484375 C-21.85712448 57.21452682 -21.56581146 56.28061615 -21.26567078 55.31840515 C-20.33809853 52.34790275 -19.40541362 49.37903401 -18.47265625 46.41015625 C-17.86621205 44.46950239 -17.26008997 42.52874783 -16.65429688 40.58789062 C-15.14201446 35.74772376 -13.62161382 30.91015932 -12.097229 26.0737915 C-11.45420199 24.03154308 -10.81263615 21.98883418 -10.17230225 19.94573975 C-9.20637342 16.86392731 -8.23645121 13.78339765 -7.265625 10.703125 C-6.9684407 9.75238602 -6.67125641 8.80164703 -6.36506653 7.82209778 C-5.9526899 6.51833443 -5.9526899 6.51833443 -5.53198242 5.18823242 C-5.16975838 4.03613533 -5.16975838 4.03613533 -4.80021667 2.86076355 C-3.69786353 -0.17577299 -3.46956374 0.10721767 0 0 Z " fill="#4C4B4B" transform="translate(562.16015625,685.90234375)"/>
<path d="M0 0 C4.95 0 9.9 0 15 0 C18.26302168 7.84757409 20.95546849 15.78781134 23.51171875 23.890625 C23.92937974 25.20724066 24.34725599 26.52378805 24.76533508 27.840271 C25.63419966 30.57926105 26.50033314 33.31909523 27.36450195 36.05957031 C28.46864227 39.56020396 29.5799116 43.05852702 30.69324017 46.55624771 C31.55494081 49.26629423 32.41275151 51.97755999 33.26941872 54.68920135 C33.87484958 56.60310389 34.48361825 58.51594954 35.092453 60.42877197 C35.45986099 61.59728699 35.82726898 62.765802 36.20581055 63.96972656 C36.52905807 64.9921344 36.8523056 66.01454224 37.18534851 67.06793213 C38 70 38 70 39 76 C33.72 76 28.44 76 23 76 C19 63.25 19 63.25 19 61 C11.74 61.33 4.48 61.66 -3 62 C-4.32 66.62 -5.64 71.24 -7 76 C-12.28 76 -17.56 76 -23 76 C-21.65122743 69.55631512 -19.96720328 63.32706131 -17.98828125 57.05078125 C-17.69696823 56.11687057 -17.40565521 55.1829599 -17.10551453 54.2207489 C-16.17794228 51.2502465 -15.24525737 48.28137776 -14.3125 45.3125 C-13.7060558 43.37184614 -13.09993372 41.43109158 -12.49414062 39.49023438 C-8.37592605 26.31203067 -4.19728379 13.1532049 0 0 Z " fill="#4A4A4A" transform="translate(549,790)"/>
<path d="M0 0 C3.2578125 -0.29296875 3.2578125 -0.29296875 7.125 -0.1875 C9.04699219 -0.14689453 9.04699219 -0.14689453 11.0078125 -0.10546875 C11.99523437 -0.07066406 12.98265625 -0.03585937 14 0 C16.94006023 6.40075613 19.01429186 13.01759964 21.125 19.73046875 C21.51316895 20.95727859 21.90133789 22.18408844 22.30126953 23.44807434 C23.12049816 26.03862773 23.93714814 28.6299758 24.75195312 31.22192383 C25.7858207 34.51001148 26.8260702 37.79603721 27.86831665 41.08147717 C28.87406859 44.25503163 29.87427085 47.43032683 30.875 50.60546875 C31.24383301 51.76837936 31.61266602 52.93128998 31.99267578 54.12944031 C34.26240126 61.36794053 36.22533261 68.62403865 38 76 C32.72 76 27.44 76 22 76 C18 63.25 18 63.25 18 61 C10.74 61.33 3.48 61.66 -4 62 C-4.474375 63.93875 -4.94875 65.8775 -5.4375 67.875 C-6.875 73.75 -6.875 73.75 -8 76 C-13.28 76 -18.56 76 -24 76 C-22.37351367 67.90624161 -19.96526227 60.09485306 -17.5 52.2265625 C-17.05906277 50.81177343 -16.61831077 49.39692662 -16.17773438 47.98202515 C-15.25897752 45.03460284 -14.33746894 42.08805863 -13.4140625 39.14208984 C-12.2313538 35.36780955 -11.05645481 31.59114903 -9.88366699 27.81377602 C-8.97772679 24.89938194 -8.06728793 21.98640827 -7.15551758 19.07383347 C-6.72025226 17.68124029 -6.28648308 16.28817857 -5.85424805 14.89464188 C-5.25122379 12.95256518 -4.64139258 11.01260601 -4.03125 9.07275391 C-3.68642578 7.96960846 -3.34160156 6.86646301 -2.98632812 5.72988892 C-2 3 -2 3 0 0 Z " fill="#4A4A4A" transform="translate(402,790)"/>
<path d="M0 0 C0.33 0.33 0.66 0.66 1 1 C0.76696471 7.75802339 -0.94573879 20.94573879 -6 26 C-8.3125 26.3125 -8.3125 26.3125 -11 26 C-13.3125 24 -13.3125 24 -15 22 C-19.33389799 23.66607271 -22.13295035 26.87528607 -25.3125 30.125 C-25.85583984 30.66898438 -26.39917969 31.21296875 -26.95898438 31.7734375 C-29.82941189 34.67436542 -32.58281934 37.64223604 -35.24462891 40.73583984 C-40.85507526 47.16991297 -46.86954817 53.20783435 -52.87036133 59.27539062 C-54.33984273 60.76663849 -55.80301575 62.26412735 -57.26000977 63.76757812 C-59.37910436 65.95337661 -61.51705647 68.11901442 -63.66015625 70.28125 C-64.30719009 70.9561145 -64.95422394 71.630979 -65.62086487 72.32629395 C-68.40545214 75.09837209 -70.20149268 76.7936205 -74.05297852 77.7890625 C-78.32186608 76.64607148 -80.50280377 74.24855609 -83.4921875 71.09375 C-84.08299103 70.49445679 -84.67379456 69.89516357 -85.28250122 69.27770996 C-87.16124465 67.36545255 -89.01802881 65.43338383 -90.875 63.5 C-92.1470431 62.19785512 -93.42046609 60.89705671 -94.6953125 59.59765625 C-97.81308631 56.41382461 -100.91133096 53.21206394 -104 50 C-107.18021279 51.39931993 -109.25794028 53.03759125 -111.66357422 55.53173828 C-112.36465302 56.25233429 -113.06573181 56.9729303 -113.78805542 57.71536255 C-114.9100383 58.88106277 -114.9100383 58.88106277 -116.0546875 60.0703125 C-117.65435633 61.7050062 -119.25463558 63.33910275 -120.85546875 64.97265625 C-123.37250463 67.55169536 -125.88462961 70.13498537 -128.38623047 72.72900391 C-130.80395097 75.23128999 -133.24008635 77.71437977 -135.6796875 80.1953125 C-136.42362762 80.97649445 -137.16756775 81.75767639 -137.93405151 82.56253052 C-143.18556627 87.86533354 -143.18556627 87.86533354 -147.39892578 88.56201172 C-150 88 -150 88 -151.9375 86.8125 C-153 85 -153 85 -152.79328918 82.64099121 C-151.85557327 79.51917947 -150.68489689 78.2060693 -148.36987305 75.93164062 C-147.60205002 75.16734741 -146.83422699 74.4030542 -146.0431366 73.61560059 C-145.20776871 72.80401489 -144.37240082 71.9924292 -143.51171875 71.15625 C-142.65697464 70.30953735 -141.80223053 69.46282471 -140.92158508 68.5904541 C-138.18616487 65.88404537 -135.43748692 63.19159925 -132.6875 60.5 C-129.95082377 57.80589269 -127.21698543 55.10896614 -124.48554993 52.4095459 C-122.78521683 50.73082674 -121.08139913 49.05562789 -119.373703 47.38439941 C-116.28843238 44.35067556 -113.32281566 41.40525291 -110.62426758 38.01757812 C-109 36 -109 36 -106.125 34.875 C-101.57784423 35.05688623 -100.1457414 36.77936 -97 40 C-97 40.66 -97 41.32 -97 42 C-96.4030835 42.27166992 -95.80616699 42.54333984 -95.19116211 42.82324219 C-93.04158542 43.97766666 -91.64953745 45.1057244 -89.94140625 46.828125 C-89.39033203 47.38113281 -88.83925781 47.93414063 -88.27148438 48.50390625 C-87.42553711 49.36822266 -87.42553711 49.36822266 -86.5625 50.25 C-86.00240234 50.81074219 -85.44230469 51.37148438 -84.86523438 51.94921875 C-81.3684233 55.48275246 -78.13030302 59.13831777 -75 63 C-71.60437316 61.52917369 -69.38099365 59.63402924 -66.76977539 57.02856445 C-65.53312889 55.80137444 -65.53312889 55.80137444 -64.27149963 54.5493927 C-63.38913132 53.66297592 -62.506763 52.77655914 -61.59765625 51.86328125 C-60.68294052 50.95047897 -59.76822479 50.0376767 -58.82579041 49.09721375 C-56.89011149 47.16448056 -54.95808739 45.22818503 -53.02856445 43.28930664 C-50.56979174 40.81918778 -48.10221356 38.3580934 -45.63176823 35.89965534 C-43.26133332 33.53824469 -40.8986127 31.16917655 -38.53515625 28.80078125 C-37.65481216 27.92448563 -36.77446808 27.04819 -35.8674469 26.14533997 C-31.42361721 21.66765829 -27.47527066 17.27016618 -24 12 C-24.680625 11.4225 -25.36125 10.845 -26.0625 10.25 C-26.701875 9.5075 -27.34125 8.765 -28 8 C-27.62109375 5.859375 -27.62109375 5.859375 -27 4 C-24.18998805 3.32098956 -21.37774339 2.65666828 -18.5625 2 C-17.77939453 1.80921875 -16.99628906 1.6184375 -16.18945312 1.421875 C-10.66825307 0.14949968 -5.66879098 -0.26808076 0 0 Z " fill="#CFCFCF" transform="translate(330,529)"/>
<path d="M0 0 C7.074375 -0.020625 14.14875 -0.04125 21.4375 -0.0625 C24.79119751 -0.07615601 24.79119751 -0.07615601 28.21264648 -0.09008789 C29.97379496 -0.09300696 31.73494411 -0.09555554 33.49609375 -0.09765625 C34.41942505 -0.10277222 35.34275635 -0.10788818 36.29406738 -0.11315918 C37.16696411 -0.11328003 38.03986084 -0.11340088 38.93920898 -0.11352539 C40.08171364 -0.11685631 40.08171364 -0.11685631 41.24729919 -0.12025452 C43 0 43 0 44 1 C44 4.96 44 8.92 44 13 C34.43 13 24.86 13 15 13 C15 18.94 15 24.88 15 31 C23.58 31 32.16 31 41 31 C41 35.29 41 39.58 41 44 C32.42 44 23.84 44 15 44 C15 50.6 15 57.2 15 64 C24.57 64 34.14 64 44 64 C44 68.29 44 72.58 44 77 C29.48 77 14.96 77 0 77 C0 51.59 0 26.18 0 0 Z " fill="#494949" transform="translate(710,790)"/>
<path d="M0 0 C0.69416016 -0.020625 1.38832031 -0.04125 2.10351562 -0.0625 C4.12109375 -0.078125 4.12109375 -0.078125 7.5625 0.25 C9.70940744 3.47036116 10.29589805 5.75439679 11.1484375 9.5078125 C11.58240845 11.395 11.58240845 11.395 12.02514648 13.3203125 C12.32949507 14.67182306 12.63360874 16.02338654 12.9375 17.375 C13.24953167 18.74491699 13.56211424 20.11470862 13.87524414 21.484375 C14.3409916 23.5221396 14.80625292 25.56000084 15.26899719 27.59844971 C16.11970466 31.34152787 16.99481981 35.07690031 17.91015625 38.8046875 C18.09852051 39.57538574 18.28688477 40.34608398 18.48095703 41.14013672 C18.96169242 43.09428309 19.44742735 45.04719771 19.93359375 47 C20.54761846 50.17309666 20.685305 53.02759668 20.5625 56.25 C21.2225 56.25 21.8825 56.25 22.5625 56.25 C22.67658203 54.98994141 22.79066406 53.72988281 22.90820312 52.43164062 C23.51981148 46.95600983 24.73246028 41.6918269 26.03125 36.34375 C26.27161987 35.33783813 26.51198975 34.33192627 26.75964355 33.29553223 C27.26471623 31.18727805 27.77244539 29.07965866 28.28271484 26.97265625 C29.06651724 23.73339776 29.84049106 20.49190134 30.61328125 17.25 C31.10619527 15.19777834 31.59966477 13.14569 32.09375 11.09375 C32.32606323 10.12095093 32.55837646 9.14815186 32.79772949 8.14587402 C33.01465454 7.25404419 33.23157959 6.36221436 33.45507812 5.44335938 C33.64525513 4.65554077 33.83543213 3.86772217 34.03137207 3.05603027 C34.5625 1.25 34.5625 1.25 35.5625 0.25 C38.2611905 0.17674564 40.92752556 0.15777649 43.625 0.1875 C45.04093153 0.19898902 46.45686603 0.21011518 47.87280273 0.22094727 C49.69920288 0.23532837 49.69920288 0.23532837 51.5625 0.25 C48.80531491 12.46697919 45.62425903 24.52038926 42.1875 36.5625 C41.6993104 38.28324125 41.21127438 40.00402608 40.72338867 41.72485352 C37.44434205 53.26676063 34.07121487 64.77555406 30.5625 76.25 C24.6225 76.25 18.6825 76.25 12.5625 76.25 C10.53470835 69.10522097 8.50841884 61.96001809 6.48339844 54.81445312 C5.79726714 52.39409453 5.11075662 49.9738434 4.42382812 47.55371094 C0.04976743 32.14218128 -4.25830787 16.71557238 -8.4375 1.25 C-6.44965101 -0.73784899 -2.71049593 0.02002213 0 0 Z " fill="#4B4B4B" transform="translate(327.4375,789.75)"/>
<path d="M0 0 C22.11 0 44.22 0 67 0 C67 18.97757995 60.2890802 34.54445581 48 49 C44.46333934 47.02031852 41.67465004 44.92228116 38.8203125 42.05078125 C38.05589844 41.28443359 37.29148437 40.51808594 36.50390625 39.72851562 C35.32634766 38.53258789 35.32634766 38.53258789 34.125 37.3125 C33.34769531 36.53455078 32.57039062 35.75660156 31.76953125 34.95507812 C28.23697706 31.39580714 24.78620676 27.80957611 21.51953125 24.00390625 C16.6997341 18.40566586 11.34390618 13.33486572 6.05664062 8.18359375 C5.27611328 7.41402344 4.49558594 6.64445313 3.69140625 5.8515625 C2.98185791 5.15885254 2.27230957 4.46614258 1.54125977 3.75244141 C0 2 0 2 0 0 Z " fill="#CFCFCF" transform="translate(792,976)"/>
<path d="M0 0 C17.82 0 35.64 0 54 0 C54 4.29 54 8.58 54 13 C47.73 13 41.46 13 35 13 C35.00523682 14.90322021 35.01047363 16.80644043 35.01586914 18.76733398 C35.03196671 25.04179524 35.04347225 31.31625162 35.05181217 37.59072781 C35.0570402 41.39651577 35.06413638 45.20228148 35.07543945 49.00805664 C35.0862712 52.67792544 35.09227744 56.34777278 35.09487724 60.01765633 C35.09673097 61.42074992 35.1003506 62.82384229 35.10573006 64.2269268 C35.11294419 66.1856968 35.11340809 68.1444882 35.11352539 70.10327148 C35.115746 71.22023911 35.11796661 72.33720673 35.12025452 73.48802185 C35 76 35 76 34 77 C31.66839945 77.09909302 29.33370058 77.12970504 27 77.125 C25.72125 77.12757813 24.4425 77.13015625 23.125 77.1328125 C20 77 20 77 19 76 C18.9059933 74.03630847 18.88256619 72.06920801 18.88647461 70.10327148 C18.88655014 68.84203964 18.88662567 67.5808078 18.88670349 66.28135681 C18.8918109 64.89460206 18.89702691 63.50784771 18.90234375 62.12109375 C18.90420799 60.71004791 18.90563186 59.29900143 18.90663147 57.88795471 C18.91045621 54.16759465 18.9202861 50.4472734 18.93133545 46.72692871 C18.94155052 42.93319219 18.94612929 39.13944942 18.95117188 35.34570312 C18.96190842 27.89711564 18.97950485 20.4485682 19 13 C12.73 13 6.46 13 0 13 C0 8.71 0 4.42 0 0 Z " fill="#525252" transform="translate(594,686)"/>
<path d="M0 0 C1.27875 0.00257813 2.5575 0.00515625 3.875 0.0078125 C5.15375 0.00523437 6.4325 0.00265625 7.75 0 C10.875 0.1328125 10.875 0.1328125 11.875 1.1328125 C11.96896057 3.06587748 11.99243517 5.00240088 11.98852539 6.93774414 C11.98844986 8.17895523 11.98837433 9.42016632 11.98829651 10.69898987 C11.98318911 12.0636499 11.9779731 13.42830952 11.97265625 14.79296875 C11.970792 16.18159433 11.96936813 17.57022057 11.96836853 18.95884705 C11.96454387 22.62002365 11.95471403 26.2811608 11.94366455 29.94232178 C11.93344932 33.67573513 11.92887067 37.40915484 11.92382812 41.14257812 C11.91309171 48.47267427 11.89601591 55.80273786 11.875 63.1328125 C12.65738037 63.12757568 13.43976074 63.12233887 14.24584961 63.11694336 C17.76805833 63.09624144 21.2902543 63.08317412 24.8125 63.0703125 C26.66004883 63.05774414 26.66004883 63.05774414 28.54492188 63.04492188 C29.71474609 63.04169922 30.88457031 63.03847656 32.08984375 63.03515625 C33.71587524 63.02730103 33.71587524 63.02730103 35.37475586 63.01928711 C37.875 63.1328125 37.875 63.1328125 38.875 64.1328125 C38.97373816 66.13080822 39.00471799 68.13238408 39 70.1328125 C39.00386719 71.7725 39.00386719 71.7725 39.0078125 73.4453125 C38.875 76.1328125 38.875 76.1328125 37.875 77.1328125 C34.85691937 77.2339495 31.86219487 77.27250159 28.84375 77.265625 C27.93749878 77.26658173 27.03124756 77.26753845 26.09753418 77.26852417 C24.17748953 77.26920603 22.25744259 77.26735132 20.33740234 77.26318359 C17.38764296 77.25783542 14.43803586 77.26312838 11.48828125 77.26953125 C9.62760383 77.26887047 7.7669265 77.26758931 5.90625 77.265625 C4.57346008 77.26866135 4.57346008 77.26866135 3.21374512 77.27175903 C-3.01005012 77.24776238 -3.01005012 77.24776238 -4.125 76.1328125 C-4.22523555 73.79566925 -4.26119203 71.48806925 -4.25439453 69.15039062 C-4.25614685 68.4203331 -4.25789917 67.69027557 -4.25970459 66.93809509 C-4.26412299 64.51339372 -4.26118517 62.08876468 -4.2578125 59.6640625 C-4.25848554 57.98636867 -4.25945557 56.30867494 -4.26071167 54.63098145 C-4.26218863 51.11026076 -4.26003416 47.5895654 -4.25537109 44.06884766 C-4.2496738 39.54570754 -4.25295282 35.02262676 -4.25894356 30.49948883 C-4.26254923 27.03378855 -4.26141056 23.56810243 -4.25881577 20.10240173 C-4.25814651 18.43415825 -4.25897486 16.76591351 -4.26129532 15.09767151 C-4.26382195 12.77015756 -4.25998113 10.44274102 -4.25439453 8.11523438 C-4.25641876 7.41909531 -4.25844299 6.72295624 -4.26052856 6.00572205 C-4.23449395 0.17996599 -4.23449395 0.17996599 0 0 Z " fill="#535353" transform="translate(481.125,789.8671875)"/>
<path d="M0 0 C4.62 0 9.24 0 14 0 C14 20.79 14 41.58 14 63 C23.24 63 32.48 63 42 63 C42 67.62 42 72.24 42 77 C36.03686834 77.02464574 30.07376605 77.042834 24.1105957 77.05493164 C22.08031702 77.05997278 20.05004198 77.06680557 18.01977539 77.07543945 C15.10822653 77.08751467 12.1967255 77.09323034 9.28515625 77.09765625 C7.91485008 77.10539818 7.91485008 77.10539818 6.51686096 77.11329651 C4.34424573 77.11349168 2.17172704 77.06211805 0 77 C-1.65888739 75.34111261 -1.12562525 73.34315218 -1.13552856 71.12709045 C-1.13350433 70.43095139 -1.1314801 69.73481232 -1.12939453 69.01757812 C-1.13114685 68.2875206 -1.13289917 67.55746307 -1.13470459 66.80528259 C-1.13912299 64.38058122 -1.13618517 61.95595218 -1.1328125 59.53125 C-1.13348554 57.85355617 -1.13445557 56.17586244 -1.13571167 54.49816895 C-1.13718863 50.97744826 -1.13503416 47.4567529 -1.13037109 43.93603516 C-1.1246738 39.41289504 -1.12795282 34.88981426 -1.13394356 30.36667633 C-1.13754923 26.90097605 -1.13641056 23.43528993 -1.13381577 19.96958923 C-1.13314651 18.30134575 -1.13397486 16.63310101 -1.13629532 14.96485901 C-1.13882195 12.63734506 -1.13498113 10.30992852 -1.12939453 7.98242188 C-1.13141876 7.28628281 -1.13344299 6.59014374 -1.13552856 5.87290955 C-1.11426274 1.11426274 -1.11426274 1.11426274 0 0 Z " fill="#525151" transform="translate(658,790)"/>
<path d="M0 0 C2.75 1.3125 2.75 1.3125 5 3 C5.556875 3.4125 6.11375 3.825 6.6875 4.25 C11.33461538 10.44615383 10.33224798 19.12679746 10.3125 26.4375 C10.32861328 27.62666016 10.34472656 28.81582031 10.36132812 30.04101562 C10.36564817 37.82141246 10.07354854 44.27448661 4.9375 50.5 C0.609685 52.70994809 -3.23866633 52.74518402 -8 52 C-11.85180622 50.11507355 -13.19179809 48.02104691 -14.60546875 44.12109375 C-16.46745436 38.27510607 -16.44061816 32.5879073 -16.375 26.5 C-16.38660156 25.42363281 -16.39820313 24.34726562 -16.41015625 23.23828125 C-16.38487179 16.31876796 -16.11736503 9.04564972 -11.72509766 3.34545898 C-8.01735107 -0.19353051 -4.94857826 -0.7197932 0 0 Z " fill="#F7F7F7" transform="translate(414,698)"/>
<path d="M0 0 C4.95 0 9.9 0 15 0 C15 25.08 15 50.16 15 76 C10.05 76 5.1 76 0 76 C0 50.92 0 25.84 0 0 Z " fill="#494949" transform="translate(449,790)"/>
<path d="M0 0 C13.29411765 0 13.29411765 0 17 3 C21.70191313 10.01668788 22.74211643 16.25900698 22.5 24.5625 C22.50386719 26.02719727 22.50386719 26.02719727 22.5078125 27.52148438 C22.41192492 34.68908134 21.60172805 41.61775353 17.125 47.4375 C11.17378104 51.8133963 8.17186394 51 0 51 C0 34.17 0 17.34 0 0 Z " fill="#F8F8F8" transform="translate(492,699)"/>
<path d="M0 0 C2.371875 -0.103125 4.74375 -0.20625 7.1875 -0.3125 C7.92508545 -0.35802002 8.6626709 -0.40354004 9.42260742 -0.45043945 C13.22753559 -0.53008346 14.88799366 -0.08370844 17.953125 2.20703125 C20.6998013 5.95488155 20.6574282 8.12656398 20.4296875 12.62109375 C19.82263068 15.98198103 18.53456252 17.75510177 16 20 C10.83608171 21.7213061 5.40708764 21.05353552 0 21 C0 14.07 0 7.14 0 0 Z " fill="#F8F8F8" transform="translate(611,833)"/>
<path d="M0 0 C17.82 0 35.64 0 54 0 C54 4.29 54 8.58 54 13 C47.73 13 41.46 13 35 13 C35.00523682 14.90322021 35.01047363 16.80644043 35.01586914 18.76733398 C35.03196671 25.04179524 35.04347225 31.31625162 35.05181217 37.59072781 C35.0570402 41.39651577 35.06413638 45.20228148 35.07543945 49.00805664 C35.0862712 52.67792544 35.09227744 56.34777278 35.09487724 60.01765633 C35.09673097 61.42074992 35.1003506 62.82384229 35.10573006 64.2269268 C35.11294419 66.1856968 35.11340809 68.1444882 35.11352539 70.10327148 C35.115746 71.22023911 35.11796661 72.33720673 35.12025452 73.48802185 C35 76 35 76 34 77 C29.38 77 24.76 77 20 77 C20 55.88 20 34.76 20 13 C20.33 13 20.66 13 21 13 C21 33.46 21 53.92 21 75 C24.96 75 28.92 75 33 75 C32.99476318 73.12707275 32.98952637 71.25414551 32.98413086 69.32446289 C32.96803312 63.14978654 32.95652767 56.97511514 32.94818783 50.80042362 C32.94295986 47.05516963 32.93586378 43.30993824 32.92456055 39.56469727 C32.91372859 35.95318313 32.90772251 32.34169079 32.90512276 28.73016167 C32.90326906 27.34939671 32.89964951 25.968633 32.89426994 24.58787727 C32.88705553 22.66024048 32.88659191 20.73258193 32.88647461 18.80493164 C32.884254 17.70572891 32.88203339 16.60652618 32.87974548 15.47401428 C33 13 33 13 34 12 C35.41570123 11.91348389 36.835595 11.89295096 38.25390625 11.90234375 C39.53491211 11.90717773 39.53491211 11.90717773 40.84179688 11.91210938 C41.73962891 11.92048828 42.63746094 11.92886719 43.5625 11.9375 C44.46419922 11.94201172 45.36589844 11.94652344 46.29492188 11.95117188 C48.52997589 11.96299756 50.76499602 11.98093362 53 12 C53 8.7 53 5.4 53 2 C35.84 2 18.68 2 1 2 C1 5.3 1 8.6 1 12 C6.94 12 12.88 12 19 12 C19 12.33 19 12.66 19 13 C12.73 13 6.46 13 0 13 C0 8.71 0 4.42 0 0 Z " fill="#414141" transform="translate(594,686)"/>
<path d="M0 0 C4.62 0 9.24 0 14 0 C14 20.79 14 41.58 14 63 C13.67 63 13.34 63 13 63 C13 42.87 13 22.74 13 2 C9.04 2 5.08 2 1 2 C1 26.09 1 50.18 1 75 C14.2 75 27.4 75 41 75 C41 71.7 41 68.4 41 65 C32.09 65 23.18 65 14 65 C14 64.67 14 64.34 14 64 C23.24 64 32.48 64 42 64 C42 68.29 42 72.58 42 77 C36.03686834 77.02464574 30.07376605 77.042834 24.1105957 77.05493164 C22.08031702 77.05997278 20.05004198 77.06680557 18.01977539 77.07543945 C15.10822653 77.08751467 12.1967255 77.09323034 9.28515625 77.09765625 C7.91485008 77.10539818 7.91485008 77.10539818 6.51686096 77.11329651 C4.34424573 77.11349168 2.17172704 77.06211805 0 77 C-1.65888739 75.34111261 -1.12562525 73.34315218 -1.13552856 71.12709045 C-1.13350433 70.43095139 -1.1314801 69.73481232 -1.12939453 69.01757812 C-1.13114685 68.2875206 -1.13289917 67.55746307 -1.13470459 66.80528259 C-1.13912299 64.38058122 -1.13618517 61.95595218 -1.1328125 59.53125 C-1.13348554 57.85355617 -1.13445557 56.17586244 -1.13571167 54.49816895 C-1.13718863 50.97744826 -1.13503416 47.4567529 -1.13037109 43.93603516 C-1.1246738 39.41289504 -1.12795282 34.88981426 -1.13394356 30.36667633 C-1.13754923 26.90097605 -1.13641056 23.43528993 -1.13381577 19.96958923 C-1.13314651 18.30134575 -1.13397486 16.63310101 -1.13629532 14.96485901 C-1.13882195 12.63734506 -1.13498113 10.30992852 -1.12939453 7.98242188 C-1.13141876 7.28628281 -1.13344299 6.59014374 -1.13552856 5.87290955 C-1.11426274 1.11426274 -1.11426274 1.11426274 0 0 Z " fill="#353535" transform="translate(658,790)"/>
<path d="M0 0 C4.62 0 9.24 0 14 0 C14 20.79 14 41.58 14 63 C13.67 63 13.34 63 13 63 C13 42.87 13 22.74 13 2 C9.04 2 5.08 2 1 2 C1 26.09 1 50.18 1 75 C14.2 75 27.4 75 41 75 C41 75.66 41 76.32 41 77 C35.17928378 77.02464638 29.35859766 77.0428343 23.5378418 77.05493164 C21.55606559 77.05997267 19.57429311 77.06680538 17.5925293 77.07543945 C14.75047891 77.08751515 11.90847753 77.09323045 9.06640625 77.09765625 C7.72891075 77.10539818 7.72891075 77.10539818 6.36439514 77.11329651 C4.24259399 77.11349177 2.1208922 77.0621003 0 77 C-1.65888739 75.34111261 -1.12562525 73.34315218 -1.13552856 71.12709045 C-1.13350433 70.43095139 -1.1314801 69.73481232 -1.12939453 69.01757812 C-1.13114685 68.2875206 -1.13289917 67.55746307 -1.13470459 66.80528259 C-1.13912299 64.38058122 -1.13618517 61.95595218 -1.1328125 59.53125 C-1.13348554 57.85355617 -1.13445557 56.17586244 -1.13571167 54.49816895 C-1.13718863 50.97744826 -1.13503416 47.4567529 -1.13037109 43.93603516 C-1.1246738 39.41289504 -1.12795282 34.88981426 -1.13394356 30.36667633 C-1.13754923 26.90097605 -1.13641056 23.43528993 -1.13381577 19.96958923 C-1.13314651 18.30134575 -1.13397486 16.63310101 -1.13629532 14.96485901 C-1.13882195 12.63734506 -1.13498113 10.30992852 -1.12939453 7.98242188 C-1.13141876 7.28628281 -1.13344299 6.59014374 -1.13552856 5.87290955 C-1.11426274 1.11426274 -1.11426274 1.11426274 0 0 Z " fill="#454545" transform="translate(478,790)"/>
<path d="M0 0 C11.96670666 -0.60437912 11.96670666 -0.60437912 16.3125 1.9375 C18.61066098 6.1082366 18.98418459 9.34825575 18 14 C16.3125 17.0625 16.3125 17.0625 13 19 C8.57764048 19.40689991 4.4601416 19.22525968 0 19 C0 12.73 0 6.46 0 0 Z " fill="#F8F8F8" transform="translate(611,803)"/>
<path d="M0 0 C4.62 0 9.24 0 14 0 C15.65888739 1.65888739 15.12562525 3.65684782 15.13552856 5.87290955 C15.13350433 6.56904861 15.1314801 7.26518768 15.12939453 7.98242188 C15.13114685 8.7124794 15.13289917 9.44253693 15.13470459 10.19471741 C15.13912299 12.61941878 15.13618517 15.04404782 15.1328125 17.46875 C15.13348554 19.14644383 15.13445557 20.82413756 15.13571167 22.50183105 C15.13718863 26.02255174 15.13503416 29.5432471 15.13037109 33.06396484 C15.1246738 37.58710496 15.12795282 42.11018574 15.13394356 46.63332367 C15.13754923 50.09902395 15.13641056 53.56471007 15.13381577 57.03041077 C15.13314651 58.69865425 15.13397486 60.36689899 15.13629532 62.03514099 C15.13882195 64.36265494 15.13498113 66.69007148 15.12939453 69.01757812 C15.13141876 69.71371719 15.13344299 70.40985626 15.13552856 71.12709045 C15.11426274 75.88573726 15.11426274 75.88573726 14 77 C11.46950598 77.07313567 8.96695163 77.09247527 6.4375 77.0625 C5.72658203 77.05798828 5.01566406 77.05347656 4.28320312 77.04882812 C2.52209987 77.03700864 0.76103964 77.01907263 -1 77 C-1 76.01 -1 75.02 -1 74 C5.93 74.495 5.93 74.495 13 75 C13 50.91 13 26.82 13 2 C9.04 2 5.08 2 1 2 C1 17.51 1 33.02 1 49 C0.67 49 0.34 49 0 49 C0 32.83 0 16.66 0 0 Z " fill="#3E3E3E" transform="translate(356,686)"/>
<path d="M0 0 C0.67272949 0.00008057 1.34545898 0.00016113 2.03857422 0.00024414 C4.07541194 -0.00192939 6.11169666 -0.0200437 8.1484375 -0.0390625 C9.43621094 -0.04099609 10.72398437 -0.04292969 12.05078125 -0.04492188 C13.82437012 -0.05108521 13.82437012 -0.05108521 15.63378906 -0.05737305 C18.79425379 0.18151045 21.00254761 0.83428763 23.84765625 2.18554688 C13.17608875 4.85343875 1.84112224 2.56463191 -9.15234375 2.18554688 C-9.15234375 26.27554688 -9.15234375 50.36554687 -9.15234375 75.18554688 C0.74765625 75.18554688 10.64765625 75.18554688 20.84765625 75.18554688 C20.84765625 75.51554688 20.84765625 75.84554687 20.84765625 76.18554688 C10.28765625 76.18554688 -0.27234375 76.18554688 -11.15234375 76.18554688 C-11.17489568 66.42403287 -11.19325936 56.66253604 -11.20415592 46.90100193 C-11.20938453 42.36880593 -11.21648176 37.83662861 -11.2277832 33.30444336 C-11.23861289 28.93431857 -11.24462076 24.5642118 -11.24722099 20.19407463 C-11.2490751 18.52303725 -11.25269543 16.8520009 -11.25807381 15.18097115 C-11.26528534 12.84857136 -11.26633465 10.51624695 -11.26586914 8.18383789 C-11.26946442 7.48612778 -11.27305969 6.78841766 -11.27676392 6.06956482 C-11.25931217 -1.95938802 -7.07017944 0.03197569 0 0 Z " fill="#373737" transform="translate(607.15234375,789.814453125)"/>
<path d="M0 0 C2 1 2 1 2.77783203 3.06958008 C3.01872559 3.96056396 3.25961914 4.85154785 3.5078125 5.76953125 C3.77207031 6.74083984 4.03632812 7.71214844 4.30859375 8.71289062 C4.57800781 9.73576172 4.84742188 10.75863281 5.125 11.8125 C5.40214844 12.82376953 5.67929687 13.83503906 5.96484375 14.87695312 C7.09786139 19.09925777 8 22.59888158 8 27 C3.05 27 -1.9 27 -7 27 C-2.80851064 8.65957447 -2.80851064 8.65957447 0 0 Z " fill="#F5F5F5" transform="translate(556,811)"/>
<path d="M0 0 C2 1 2 1 2.77783203 3.06958008 C3.01872559 3.96056396 3.25961914 4.85154785 3.5078125 5.76953125 C3.77207031 6.74083984 4.03632813 7.71214844 4.30859375 8.71289062 C4.57800781 9.73576172 4.84742188 10.75863281 5.125 11.8125 C5.40214844 12.82376953 5.67929687 13.83503906 5.96484375 14.87695312 C7.09786139 19.09925777 8 22.59888158 8 27 C3.05 27 -1.9 27 -7 27 C-2.80851064 8.65957447 -2.80851064 8.65957447 0 0 Z " fill="#F5F6F5" transform="translate(292,811)"/>
<path d="M0 0 C0.66 0 1.32 0 2 0 C3.00801676 3.7478921 4.00501289 7.49862967 5 11.25 C5.28617187 12.31347656 5.57234375 13.37695312 5.8671875 14.47265625 C6.13789063 15.49746094 6.40859375 16.52226563 6.6875 17.578125 C7.06455078 18.99206543 7.06455078 18.99206543 7.44921875 20.43457031 C8 23 8 23 8 27 C3.05 27 -1.9 27 -7 27 C-4.76819645 17.97082523 -2.50525868 8.95819769 0 0 Z " fill="#F6F6F6" transform="translate(408,811)"/>
<path d="M0 0 C2.33286224 2.33286224 2.65581383 3.74709916 3.5078125 6.90234375 C3.77207031 7.87494141 4.03632812 8.84753906 4.30859375 9.84960938 C4.57800781 10.86861328 4.84742188 11.88761719 5.125 12.9375 C5.40214844 13.95263672 5.67929687 14.96777344 5.96484375 16.01367188 C8 23.58786176 8 23.58786176 8 27 C3.05 27 -1.9 27 -7 27 C-2.80851064 8.65957447 -2.80851064 8.65957447 0 0 Z " fill="#F8F8F8" transform="translate(676,707)"/>
<path d="M0 0 C0.66 0 1.32 0 2 0 C3.00801676 3.7478921 4.00501289 7.49862967 5 11.25 C5.28617188 12.31347656 5.57234375 13.37695312 5.8671875 14.47265625 C6.13789062 15.49746094 6.40859375 16.52226563 6.6875 17.578125 C7.06455078 18.99206543 7.06455078 18.99206543 7.44921875 20.43457031 C8 23 8 23 8 27 C3.38 27 -1.24 27 -6 27 C-5.37547911 20.79786153 -4.0842258 15.00570586 -2.4375 9 C-2.20353516 8.12988281 -1.96957031 7.25976562 -1.72851562 6.36328125 C-1.15709256 4.24085272 -0.58085043 2.11986406 0 0 Z " fill="#F7F7F7" transform="translate(565,707)"/>
<path d="M0 0 C2 1 2 1 3.0703125 3.8359375 C3.59238281 5.58777344 3.59238281 5.58777344 4.125 7.375 C4.47820313 8.53773438 4.83140625 9.70046875 5.1953125 10.8984375 C6 14 6 14 6 17 C0.72 17 -4.56 17 -10 17 C-9.505 15.515 -9.505 15.515 -9 14 C-4.71 14.33 -0.42 14.66 4 15 C3.34 13.2675 2.68 11.535 2 9.75 C0.6146392 6.1134279 0 3.95473153 0 0 Z " fill="#3A3A3A" transform="translate(591,746)"/>
<path d="M0 0 C2.3129482 2.3129482 2.49580975 3.47904875 3.125 6.625 C3.29257812 7.44226563 3.46015625 8.25953125 3.6328125 9.1015625 C3.81457031 10.04128906 3.81457031 10.04128906 4 11 C2.824375 11.2165625 2.824375 11.2165625 1.625 11.4375 C-0.96421018 11.87798925 -0.96421018 11.87798925 -3 13 C-2.69128878 11.20767663 -2.37790936 9.41615679 -2.0625 7.625 C-1.88847656 6.62726562 -1.71445312 5.62953125 -1.53515625 4.6015625 C-1 2 -1 2 0 0 Z " fill="#EFEFEF" transform="translate(676,707)"/>
<path d="M0 0 C4.95 0 9.9 0 15 0 C15.33 1.65 15.66 3.3 16 5 C15.34 4.34 14.68 3.68 14 3 C10.87803664 2.53513282 10.87803664 2.53513282 7.375 2.375 C6.18648437 2.30023437 4.99796875 2.22546875 3.7734375 2.1484375 C2.85820313 2.09945312 1.94296875 2.05046875 1 2 C0.67 3.65 0.34 5.3 0 7 C-0.93423645 3.98968256 -1.04449911 3.13349732 0 0 Z " fill="#424242" transform="translate(549,790)"/>
<path d="M0 0 C5.28 0 10.56 0 16 0 C15.34 2.64 14.68 5.28 14 8 C13 5 13 5 14 2 C9.38 2 4.76 2 0 2 C0 1.34 0 0.68 0 0 Z " fill="#454545" transform="translate(363,790)"/>
<path d="M0 0 C4.62 0 9.24 0 14 0 C14 0.66 14 1.32 14 2 C7.565 2.495 7.565 2.495 1 3 C0.34 4.65 -0.32 6.3 -1 8 C-1.625 6.25 -1.625 6.25 -2 4 C-1.34 2.68 -0.68 1.36 0 0 Z " fill="#454545" transform="translate(559,686)"/>
<path d="M0 0 C1.39456452 0.00667256 2.78911118 0.01863093 4.18359375 0.03515625 C4.89451172 0.03966797 5.60542969 0.04417969 6.33789062 0.04882812 C8.09899388 0.06064761 9.86005411 0.07858362 11.62109375 0.09765625 C11.95109375 1.74765625 12.28109375 3.39765625 12.62109375 5.09765625 C12.29109375 4.10765625 11.96109375 3.11765625 11.62109375 2.09765625 C7.00109375 2.09765625 2.38109375 2.09765625 -2.37890625 2.09765625 C-2.70890625 2.75765625 -3.03890625 3.41765625 -3.37890625 4.09765625 C-3.70890625 3.10765625 -4.03890625 2.11765625 -4.37890625 1.09765625 C-3.37890625 0.09765625 -3.37890625 0.09765625 0 0 Z " fill="#404040" transform="translate(323.37890625,789.90234375)"/>
<path d="M0 0 C0.66 1.32 1.32 2.64 2 4 C-3.28 4 -8.56 4 -14 4 C-14 3.34 -14 2.68 -14 2 C-9.38 2 -4.76 2 0 2 C0 1.34 0 0.68 0 0 Z " fill="#3C3C3C" transform="translate(706,759)"/>
<path d="M0 0 C0.66 0 1.32 0 2 0 C2.66 3.3 3.32 6.6 4 10 C3.01 9.34 2.02 8.68 1 8 C0.01 8.33 -0.98 8.66 -2 9 C-1.34 6.03 -0.68 3.06 0 0 Z " fill="#ECECEC" transform="translate(565,707)"/>
<path d="M0 0 C1.25127906 3.54667178 0.72285053 5.72253438 -0.4375 9.25 C-0.72496094 10.14203125 -1.01242187 11.0340625 -1.30859375 11.953125 C-1.53675781 12.62859375 -1.76492188 13.3040625 -2 14 C-3.03159626 10.90521121 -2.97482862 9.47368607 -2.5625 6.3125 C-2.46066406 5.50425781 -2.35882812 4.69601562 -2.25390625 3.86328125 C-2.17011719 3.24839844 -2.08632813 2.63351562 -2 2 C-1.34 2 -0.68 2 0 2 C0 1.34 0 0.68 0 0 Z " fill="#2D2E2E" transform="translate(563,710)"/>
<path d="M0 0 C2.72426311 2.35277269 3.8141763 4.62496331 5 8 C3.68 7.67 2.36 7.34 1 7 C0.67 4.69 0.34 2.38 0 0 Z " fill="#E4E5E5" transform="translate(330,714)"/>
</svg>
